<?xml version="1.0" encoding="UTF-8"?>
<svg id="Warstwa_1" data-name="Warstwa 1" xmlns="http://www.w3.org/2000/svg" xmlns:xlink="http://www.w3.org/1999/xlink" viewBox="0 0 1080 1080">
  <defs>
    <style>
      .cls-1 {
        clip-path: url(#clippath-4);
      }

      .cls-1, .cls-2, .cls-3, .cls-4, .cls-5, .cls-6 {
        fill: none;
      }

      .cls-7 {
        fill: #f67f17;
      }

      .cls-8 {
        fill: #dd0377;
      }

      .cls-9 {
        fill: #ef831f;
      }

      .cls-10 {
        fill: #e28b2f;
      }

      .cls-11 {
        fill: #fb572c;
      }

      .cls-12 {
        fill: #e10377;
      }

      .cls-13 {
        fill: #fb552e;
      }

      .cls-14 {
        fill: #f58019;
      }

      .cls-15 {
        fill: #fd6322;
      }

      .cls-2 {
        clip-path: url(#clippath-2);
      }

      .cls-16 {
        fill: #fe7511;
      }

      .cls-17 {
        fill: #ea8626;
      }

      .cls-18 {
        fill: #fa4c37;
      }

      .cls-19 {
        fill: #d40277;
      }

      .cls-20 {
        fill: #e70477;
      }

      .cls-21 {
        fill: #f94042;
      }

      .cls-22 {
        fill: #ec0477;
      }

      .cls-23 {
        fill: #fc5d27;
      }

      .cls-24 {
        fill: #fc7c11;
      }

      .cls-25 {
        fill: #f6215d;
      }

      .cls-26 {
        fill: #ff7a0d;
      }

      .cls-27 {
        fill: #fc592b;
      }

      .cls-28 {
        fill: #f83848;
      }

      .cls-29 {
        fill: #f6225d;
      }

      .cls-30 {
        fill: #f72857;
      }

      .cls-31 {
        fill: #f72e52;
      }

      .cls-32 {
        fill: #d80277;
      }

      .cls-33 {
        fill: #f6255a;
      }

      .cls-34 {
        fill: #f94141;
      }

      .cls-35 {
        fill: #eb8625;
      }

      .cls-36 {
        fill: #fa4b38;
      }

      .cls-37 {
        fill: #fb542f;
      }

      .cls-38 {
        fill: #de8d34;
      }

      .cls-39 {
        fill: #f40c70;
      }

      .cls-40 {
        fill: #f5146a;
      }

      .cls-41 {
        fill: #f4106d;
      }

      .cls-42 {
        fill: #f4126b;
      }

      .cls-43 {
        fill: #f30a73;
      }

      .cls-44 {
        fill: #dd8e35;
      }

      .cls-45 {
        fill: #c50077;
      }

      .cls-46 {
        fill: #f97e14;
      }

      .cls-47 {
        fill: #c90177;
      }

      .cls-48 {
        fill: #e50377;
      }

      .cls-49 {
        fill: #fe7016;
      }

      .cls-50 {
        fill: #fd7b0f;
      }

      .cls-51 {
        fill: #ed8523;
      }

      .cls-52 {
        fill: #e08c31;
      }

      .cls-53 {
        fill: #ee8420;
      }

      .cls-54 {
        fill: #f4136a;
      }

      .cls-55 {
        fill: #fa493a;
      }

      .cls-56 {
        fill: #f93e44;
      }

      .cls-57 {
        fill: #ee0477;
      }

      .cls-58 {
        fill: #f1821d;
      }

      .cls-59 {
        fill: #fa4d36;
      }

      .cls-60 {
        fill: #e6892b;
      }

      .cls-61 {
        fill: #fd6421;
      }

      .cls-62 {
        fill: #e20377;
      }

      .cls-63 {
        fill: #d30277;
      }

      .cls-64 {
        fill: #f00577;
      }

      .cls-65 {
        fill: #fa4a39;
      }

      .cls-66 {
        fill: #f30874;
      }

      .cls-67 {
        fill: #f9443e;
      }

      .cls-68 {
        fill: #fb562d;
      }

      .cls-69 {
        fill: #cb0177;
      }

      .cls-70 {
        fill: #f61d61;
      }

      .cls-71 {
        fill: #ff790e;
      }

      .cls-72 {
        fill: #e18b30;
      }

      .cls-73 {
        fill: #f8354b;
      }

      .cls-74 {
        fill: #c70077;
      }

      .cls-75 {
        fill: #fd6a1b;
      }

      .cls-76 {
        fill: #dc0377;
      }

      .cls-77 {
        fill: #fb4f34;
      }

      .cls-78 {
        fill: #e40377;
      }

      .cls-79 {
        fill: #f72f51;
      }

      .cls-80 {
        fill: #f87e15;
      }

      .cls-81 {
        fill: #ea0477;
      }

      .cls-82 {
        fill: #e60477;
      }

      .cls-83 {
        fill: #f4811a;
      }

      .cls-84 {
        fill: #fd6620;
      }

      .cls-85 {
        fill: #f30775;
      }

      .cls-86 {
        fill: #f83a47;
      }

      .cls-87 {
        fill: #fe6b1a;
      }

      .cls-88 {
        fill: #f8324e;
      }

      .cls-89 {
        fill: #fb5231;
      }

      .cls-90 {
        fill: #f72a55;
      }

      .cls-91 {
        fill: #f4116c;
      }

      .cls-92 {
        fill: #f3811b;
      }

      .cls-93 {
        fill: #fb5330;
      }

      .cls-94 {
        fill: #f72956;
      }

      .cls-95 {
        fill: #fd691c;
      }

      .cls-96 {
        fill: #f51d62;
      }

      .cls-97 {
        fill: #f30577;
      }

      .cls-98 {
        fill: #fc6025;
      }

      .cls-99 {
        fill: #d70277;
      }

      .cls-100 {
        fill: #d90277;
      }

      .cls-101 {
        fill: #f10577;
      }

      .cls-102 {
        fill: #f93c45;
      }

      .cls-103 {
        fill: #f8314f;
      }

      .cls-104 {
        fill: #ec8524;
      }

      .cls-105 {
        fill: #fe7413;
      }

      .cls-106 {
        fill: #c80077;
      }

      .cls-107 {
        fill: #f51c63;
      }

      .cls-108 {
        fill: #f0831e;
      }

      .cls-109 {
        fill: #f61f5f;
      }

      .cls-110 {
        fill: #f40e6f;
      }

      .cls-111 {
        fill: #fc5b29;
      }

      .cls-112 {
        fill: #fc7c10;
      }

      .cls-113 {
        fill: #cd0177;
      }

      .cls-114 {
        fill: #f40a72;
      }

      .cls-115 {
        fill: #e30377;
      }

      .cls-116 {
        fill: #f40d70;
      }

      .cls-117 {
        fill: #fa473c;
      }

      .cls-118 {
        fill: #fb7d12;
      }

      .cls-119 {
        fill: #e00377;
      }

      .cls-120 {
        fill: #f58018;
      }

      .cls-121 {
        fill: #df8d33;
      }

      .cls-122 {
        fill: #f77f16;
      }

      .cls-123 {
        fill: #fe6d19;
      }

      .cls-124 {
        fill: #f30676;
      }

      .cls-125 {
        fill: #fc5a2a;
      }

      .cls-126 {
        fill: #f51965;
      }

      .cls-127 {
        fill: #ff7610;
      }

      .cls-128 {
        fill: #fc5c28;
      }

      .cls-129 {
        fill: #f72b55;
      }

      .cls-130 {
        fill: #d20277;
      }

      .cls-131 {
        fill: #cc0177;
      }

      .cls-132 {
        fill: #f83b46;
      }

      .cls-133 {
        fill: #fc5e26;
      }

      .cls-134 {
        fill: #fe7314;
      }

      .cls-135 {
        fill: #f61e60;
      }

      .cls-136 {
        fill: #e5892c;
      }

      .cls-137 {
        fill: #ca0177;
      }

      .cls-138 {
        fill: #e08c32;
      }

      .cls-139 {
        fill: #f40f6e;
      }

      .cls-3 {
        clip-path: url(#clippath-3);
      }

      .cls-140 {
        fill: #ed0477;
      }

      .cls-141 {
        fill: #f30974;
      }

      .cls-142 {
        fill: #f83749;
      }

      .cls-143 {
        fill: #f8334d;
      }

      .cls-144 {
        fill: #d00177;
      }

      .cls-145 {
        fill: #fe6f17;
      }

      .cls-146 {
        fill: #de0377;
      }

      .cls-147 {
        fill: #e88728;
      }

      .cls-148 {
        fill: #d60277;
      }

      .cls-149 {
        fill: #e80477;
      }

      .cls-150 {
        fill: #f8364a;
      }

      .cls-151 {
        fill: #f8344c;
      }

      .cls-152 {
        fill: #f51b63;
      }

      .cls-153 {
        fill: #ef0577;
      }

      .cls-154 {
        fill: #e98727;
      }

      .cls-155 {
        fill: #fa483b;
      }

      .cls-156 {
        fill: #f2821c;
      }

      .cls-157 {
        fill: #ce0177;
      }

      .cls-158 {
        fill: #f6245b;
      }

      .cls-159 {
        fill: #fd681d;
      }

      .cls-160 {
        fill: #f9433f;
      }

      .cls-161 {
        fill: #da0277;
      }

      .cls-162 {
        fill: #f62758;
      }

      .cls-163 {
        fill: #f94240;
      }

      .cls-164 {
        fill: #fb4e35;
      }

      .cls-165 {
        fill: #f51568;
      }

      .cls-5 {
        clip-path: url(#clippath);
      }

      .cls-166 {
        fill: #e78829;
      }

      .cls-167 {
        fill: #f72d53;
      }

      .cls-168 {
        fill: #f93f43;
      }

      .cls-169 {
        fill: #f40b72;
      }

      .cls-170 {
        fill: #e7882a;
      }

      .cls-171 {
        fill: #f51667;
      }

      .cls-172 {
        fill: #f30875;
      }

      .cls-173 {
        fill: #f51a64;
      }

      .cls-174 {
        fill: #d50277;
      }

      .cls-175 {
        fill: #f51866;
      }

      .cls-176 {
        fill: #f51767;
      }

      .cls-177 {
        fill: #f93d45;
      }

      .cls-178 {
        fill: #f20577;
      }

      .cls-179 {
        fill: #ee8422;
      }

      .cls-180 {
        fill: #cf0177;
      }

      .cls-181 {
        fill: #f62659;
      }

      .cls-182 {
        fill: #fa7d13;
      }

      .cls-183 {
        fill: #fe7115;
      }

      .cls-184 {
        fill: #f6235c;
      }

      .cls-185 {
        fill: #f6205e;
      }

      .cls-6 {
        clip-path: url(#clippath-1);
      }

      .cls-186 {
        fill: #f72c54;
      }

      .cls-187 {
        fill: #f73050;
      }

      .cls-188 {
        fill: #fc6124;
      }

      .cls-189 {
        fill: #fb5132;
      }

      .cls-190 {
        fill: #eb0477;
      }

      .cls-191 {
        fill: #e38a2e;
      }

      .cls-192 {
        fill: #ff780f;
      }

      .cls-193 {
        fill: #f51569;
      }

      .cls-194 {
        fill: #fd671e;
      }

      .cls-195 {
        fill: #e90477;
      }

      .cls-196 {
        fill: #dc8e36;
      }

      .cls-197 {
        fill: #fd6223;
      }

      .cls-198 {
        fill: #fe6e18;
      }

      .cls-199 {
        fill: #fa453d;
      }

      .cls-200 {
        fill: #fe7b0e;
      }

      .cls-201 {
        fill: #c60077;
      }

      .cls-202 {
        fill: #d10177;
      }

      .cls-203 {
        fill: #f40c71;
      }

      .cls-204 {
        fill: #c40077;
      }

      .cls-205 {
        fill: #e48a2d;
      }

      .cls-206 {
        fill: #df0377;
      }
    </style>
    <clipPath id="clippath">
      <rect class="cls-4" x="93.76" y="372.97" width="111.08" height="334.06" rx="55.54" ry="55.54"/>
    </clipPath>
    <clipPath id="clippath-1">
      <rect class="cls-4" x="290.34" y="316.14" width="111.08" height="447.71" rx="55.54" ry="55.54"/>
    </clipPath>
    <clipPath id="clippath-2">
      <rect class="cls-4" x="486.92" y="204.02" width="111.08" height="671.95" rx="55.54" ry="55.54"/>
    </clipPath>
    <clipPath id="clippath-3">
      <rect class="cls-4" x="681.04" y="316.14" width="111.08" height="447.71" rx="55.54" ry="55.54"/>
    </clipPath>
    <clipPath id="clippath-4">
      <rect class="cls-4" x="875.16" y="372.97" width="111.08" height="334.06" rx="55.54" ry="55.54"/>
    </clipPath>
  </defs>
  <g class="cls-5">
    <rect class="cls-204" x="93.76" y="372.97" width="111.08" height="334.06"/>
    <path class="cls-204" d="m132.58,370.35h74.71v339.3h-110.76v9.24c-.35-3.62-.67-7.25-.98-10.88-9.79-116.13,1.58-236.23,37.02-354.24v16.57Z"/>
    <path class="cls-45" d="m137.97,370.35h69.32v339.3h-105.13v8.63c-.34-3.6-.67-7.2-.97-10.8-9.72-115.35,1.57-234.64,36.77-351.85v14.73Z"/>
    <path class="cls-201" d="m143.36,370.35h63.93v339.3h-99.49v8.01c-.34-3.57-.66-7.15-.97-10.73-9.65-114.57,1.56-233.05,36.53-349.47v12.88Z"/>
    <path class="cls-74" d="m148.75,370.35h58.54v339.3h-92.78v18.03c-.76-7.08-1.44-14.18-2.04-21.29-9.59-113.78,1.55-231.45,36.28-347.08v11.03Z"/>
    <path class="cls-106" d="m154.14,370.35h53.15v339.3h-87.15v17.35c-.76-7.03-1.43-14.08-2.03-21.14-9.52-113,1.54-229.86,36.03-344.7v9.19Z"/>
    <path class="cls-47" d="m159.53,370.35h47.76v339.3h-81.53v16.66c-.75-6.98-1.42-13.98-2.01-20.99-9.46-112.22,1.53-228.27,35.78-342.31v7.34Z"/>
    <path class="cls-137" d="m164.92,370.35h42.37v339.3h-75.9v15.97c-.74-6.93-1.41-13.88-2-20.85-9.39-111.44,1.52-226.68,35.53-339.92v5.49Z"/>
    <path class="cls-69" d="m170.31,370.35h36.98v339.3h-70.28v15.29c-.74-6.88-1.4-13.79-1.98-20.7-9.32-110.65,1.51-225.09,35.28-337.54v3.65Z"/>
    <path class="cls-131" d="m175.7,370.35h31.59v339.3h-64.65v14.6c-.73-6.84-1.39-13.69-1.97-20.56-9.26-109.87,1.5-223.5,35.03-335.15v1.8Z"/>
    <path class="cls-113" d="m181.09,370.39c1.04-3.46,2.1-6.92,3.18-10.36v10.31h23.02v339.3h-59.03v13.92c-.73-6.79-1.38-13.59-1.96-20.41-9.19-109.09,1.49-221.91,34.78-332.77Z"/>
    <path class="cls-157" d="m186.48,372.24c1.03-3.44,2.08-6.87,3.16-10.28v8.39h17.66v339.3h-53.4v13.23c-.72-6.74-1.37-13.49-1.94-20.26-9.13-108.31,1.48-220.32,34.53-330.38Z"/>
    <path class="cls-180" d="m191.87,374.09c2.05-6.83,4.18-13.61,6.38-20.34v16.6h9.05v339.3h-47.78v12.55c-.72-6.69-1.36-13.4-1.93-20.12-9.06-107.53,1.47-218.73,34.28-327.99Z"/>
    <path class="cls-144" d="m197.26,375.93c2.04-6.78,4.15-13.51,6.33-20.2v14.61h3.7v339.3h-42.15v11.86c-.71-6.64-1.35-13.3-1.91-19.97-8.99-106.74,1.46-217.13,34.03-325.61Z"/>
    <path class="cls-202" d="m202.65,377.78c2.02-6.73,4.12-13.41,6.28-20.05l-1.64,12.62v339.3h-36.52v11.17c-.71-6.59-1.34-13.2-1.9-19.82-8.93-105.96,1.45-215.54,33.78-323.22Z"/>
    <path class="cls-130" d="m207.29,379.63v-9.28,339.3h-30.9v10.49c-.7-6.54-1.33-13.1-1.89-19.68-8.86-105.18,1.44-213.95,33.53-320.84h-.75Z"/>
    <path class="cls-63" d="m207.29,381.47v-11.13,339.3h-25.27v9.8c-.7-6.5-1.32-13.01-1.87-19.53-8.8-104.4,1.42-212.36,33.28-318.45h-6.14Z"/>
    <path class="cls-19" d="m207.29,383.32v-12.97,339.3h-19.65v9.12c-.69-6.45-1.31-12.91-1.86-19.38-8.73-103.61,1.41-210.77,33.03-316.06h-11.53Z"/>
    <path class="cls-174" d="m207.29,385.17v-14.82,339.3h-14.02v8.43c-.69-6.4-1.3-12.81-1.84-19.24-8.66-102.83,1.4-209.18,32.78-313.68h-16.92Z"/>
    <path class="cls-148" d="m207.29,387.01v-16.67,339.3h-8.4v7.75c-.68-6.35-1.29-12.71-1.83-19.09-4.3-51.03-3.95-102.92,1.36-155.03,2.66-26.05,6.56-52.16,11.74-78.23h-2.88v-78.04Z"/>
    <path class="cls-99" d="m207.29,388.86v-18.51,339.3h-2.77v7.06c-.68-6.3-1.28-12.62-1.82-18.95-4.27-50.63-3.92-102.13,1.35-153.84,2.64-25.85,6.51-51.76,11.65-77.63h-8.42v-77.44Z"/>
    <path class="cls-32" d="m207.29,390.71v-20.36,326.88h1.05c-4.23-50.24-3.89-101.34,1.34-152.65h-2.4v-153.87Z"/>
  </g>
  <g class="cls-6">
    <rect class="cls-204" x="290.34" y="316.14" width="111.08" height="447.71"/>
    <polygon class="cls-204" points="287.88 353.77 287.88 313.52 403.87 313.52 403.87 766.48 287.88 766.48 287.88 353.77"/>
    <polygon class="cls-45" points="287.88 355.62 287.88 313.52 403.87 313.52 403.87 766.48 287.88 766.48 287.88 355.62"/>
    <polygon class="cls-201" points="287.88 357.47 287.88 313.52 403.87 313.52 403.87 766.48 287.88 766.48 287.88 357.47"/>
    <polygon class="cls-74" points="287.88 359.31 287.88 313.52 403.87 313.52 403.87 766.48 287.88 766.48 287.88 359.31"/>
    <polygon class="cls-106" points="287.88 361.16 287.88 313.52 403.87 313.52 403.87 766.48 287.88 766.48 287.88 361.16"/>
    <polygon class="cls-47" points="287.88 363.01 287.88 313.52 403.87 313.52 403.87 766.48 287.88 766.48 287.88 363.01"/>
    <polygon class="cls-137" points="287.88 364.85 287.88 313.52 403.87 313.52 403.87 766.48 287.88 766.48 287.88 364.85"/>
    <polygon class="cls-69" points="287.88 366.7 287.88 313.52 403.87 313.52 403.87 766.48 287.88 766.48 287.88 366.7"/>
    <polygon class="cls-131" points="287.88 368.55 287.88 313.52 403.87 313.52 403.87 766.48 287.88 766.48 287.88 368.55"/>
    <polygon class="cls-113" points="287.88 370.39 287.88 313.52 403.87 313.52 403.87 766.48 287.88 766.48 287.88 370.39"/>
    <polygon class="cls-157" points="287.88 372.24 287.88 313.52 403.87 313.52 403.87 766.48 287.88 766.48 287.88 372.24"/>
    <polygon class="cls-180" points="287.88 374.09 287.88 313.52 403.87 313.52 403.87 766.48 287.88 766.48 287.88 374.09"/>
    <polygon class="cls-144" points="287.88 375.93 287.88 313.52 403.87 313.52 403.87 766.48 287.88 766.48 287.88 375.93"/>
    <polygon class="cls-202" points="287.88 377.78 287.88 313.52 403.87 313.52 403.87 766.48 287.88 766.48 287.88 377.78"/>
    <polygon class="cls-130" points="287.88 379.63 287.88 313.52 403.87 313.52 403.87 766.48 287.88 766.48 287.88 379.63"/>
    <polygon class="cls-63" points="287.88 381.47 287.88 313.52 403.87 313.52 403.87 766.48 287.88 766.48 287.88 381.47"/>
    <polygon class="cls-19" points="287.88 383.32 287.88 313.52 403.87 313.52 403.87 766.48 287.88 766.48 287.88 383.32"/>
    <polygon class="cls-174" points="287.88 385.17 287.88 313.52 403.87 313.52 403.87 766.48 287.88 766.48 287.88 385.17"/>
    <polygon class="cls-148" points="287.88 387.01 287.88 313.52 403.87 313.52 403.87 766.48 287.88 766.48 287.88 387.01"/>
    <polygon class="cls-99" points="287.88 388.86 287.88 313.89 287.88 313.52 403.87 313.52 403.87 766.48 287.88 766.48 287.88 388.86"/>
    <polygon class="cls-32" points="287.88 390.71 287.88 316.31 287.88 313.52 403.87 313.52 403.87 766.48 287.88 766.48 287.88 390.71"/>
    <polygon class="cls-100" points="287.88 392.55 287.88 318.74 287.88 313.52 403.87 313.52 403.87 766.48 287.88 766.48 287.88 392.55"/>
    <polygon class="cls-161" points="287.88 394.4 287.88 321.17 287.88 313.52 403.87 313.52 403.87 766.48 287.88 766.48 287.88 394.4"/>
    <path class="cls-76" d="m287.88,396.25v-72.66h-5.66c2.4-5.87,4.86-11.7,7.39-17.48v7.41h114.26v452.96h-115.99v-370.23Z"/>
    <path class="cls-8" d="m287.88,398.09v-72.08h-.47c2.38-5.83,4.83-11.61,7.33-17.34v4.84h109.13v452.96h-115.99v-368.39Z"/>
    <path class="cls-146" d="m287.88,399.94v-36.28h-8.7c4.21-11.92,8.69-23.66,13.41-35.22,2.36-5.78,4.79-11.51,7.27-17.2v2.28h104.01v452.96h-115.99v-366.54Z"/>
    <path class="cls-206" d="m272.72,401.79c7.31-24.34,15.68-47.99,25.06-70.92,4.69-11.46,9.62-22.75,14.79-33.85v16.5h91.3v452.96h-115.99v-364.69h-15.16Z"/>
    <path class="cls-119" d="m278.11,403.63c7.25-24.14,15.56-47.6,24.85-70.34,4.65-11.37,9.54-22.56,14.67-33.57v13.8h86.24v452.96h-115.99v-362.85h-9.77Z"/>
    <path class="cls-12" d="m283.5,405.48c7.19-23.94,15.43-47.21,24.65-69.76,4.61-11.28,9.46-22.38,14.55-33.29v11.09h81.17v452.96h-115.99v-361h-4.38Z"/>
    <path class="cls-62" d="m288.89,407.33c7.13-23.74,15.3-46.81,24.44-69.18,4.57-11.18,9.38-22.19,14.43-33.02v8.39h76.11v452.96h-115.99v-287.69h-16.78c4.74-23.87,10.66-47.72,17.79-71.46Z"/>
    <path class="cls-115" d="m294.28,409.17c7.07-23.54,15.17-46.42,24.24-68.6,4.53-11.09,9.31-22.01,14.31-32.74v5.69h71.04v452.96h-115.99v-286.45h-11.24c4.71-23.67,10.57-47.32,17.64-70.86Z"/>
    <path class="cls-78" d="m299.67,411.02c7.01-23.34,15.04-46.03,24.03-68.02,4.49-11,9.23-21.82,14.19-32.46v2.99h65.98v452.96h-115.99v-214.77h-16.27c4.79-46.91,14.04-94.01,28.06-140.69Z"/>
    <path class="cls-48" d="m305.06,412.87c6.95-23.14,14.92-45.64,23.83-67.44,4.46-10.9,9.15-21.63,14.07-32.19v.28h60.91v452.96h-115.86v8.62c-1.11-5.54-2.17-11.1-3.16-16.68h3.03v-206.06h-10.64c4.75-46.51,13.93-93.21,27.83-139.5Z"/>
    <path class="cls-82" d="m310.45,414.71c6.89-22.95,14.79-45.25,23.62-66.86,4.42-10.81,9.07-21.45,13.95-31.91,2.44-5.23,4.93-10.42,7.49-15.56v13.15h48.36v452.96h-110.33v7.36c-1.1-5.5-2.15-11.01-3.13-16.54-3.92-22.12-6.85-44.51-8.76-67.09-7.61-90.32,1.23-183.72,28.79-275.5Z"/>
    <path class="cls-20" d="m315.84,416.56c6.83-22.75,14.66-44.85,23.42-66.29,4.38-10.72,8.99-21.26,13.83-31.63,2.42-5.19,4.89-10.33,7.42-15.43v10.31h43.36v452.96h-104.79v6.09c-1.09-5.45-2.13-10.91-3.1-16.4-3.89-21.93-6.8-44.12-8.68-66.5-7.54-89.53,1.22-182.13,28.54-273.11Z"/>
    <path class="cls-149" d="m321.24,418.41c6.77-22.55,14.53-44.46,23.21-65.71,4.34-10.62,8.91-21.08,13.71-31.36,2.4-5.14,4.85-10.24,7.36-15.29v7.47h38.36v452.96h-99.25v4.83c-1.09-5.4-2.11-10.82-3.07-16.25-3.86-21.74-6.74-43.74-8.61-65.92-7.48-88.75,1.21-180.54,28.3-270.73Z"/>
    <path class="cls-195" d="m326.63,420.25c6.71-22.35,14.4-44.07,23.01-65.13,4.3-10.53,8.83-20.89,13.59-31.08,2.38-5.1,4.81-10.15,7.29-15.16v4.63h33.36v452.96h-93.72v3.57c-1.08-5.35-2.09-10.72-3.05-16.11-3.82-21.55-6.68-43.35-8.53-65.34-7.41-87.97,1.2-178.95,28.05-268.34Z"/>
    <path class="cls-81" d="m332.02,422.1c13.3-44.3,30.49-86.11,51.04-125.14v16.56h20.82v452.96h-84.81v18.17c-2.37-10.54-4.5-21.15-6.4-31.83-3.79-21.35-6.62-42.96-8.45-64.76-7.35-87.19,1.19-177.35,27.8-265.96Z"/>
    <path class="cls-190" d="m337.41,423.95c13.18-43.9,30.22-85.34,50.58-124.02v13.59h15.88v452.96h-79.3v16.76c-2.35-10.44-4.46-20.96-6.34-31.54-3.75-21.16-6.56-42.58-8.38-64.18-7.28-86.41,1.18-175.76,27.55-263.57Z"/>
    <path class="cls-22" d="m342.8,425.79c13.06-43.51,29.95-84.57,50.13-122.9v10.63h10.95v452.96h-73.79v15.35c-2.33-10.35-4.42-20.77-6.28-31.26-3.72-20.97-6.5-42.19-8.3-63.6-7.21-85.62,1.17-174.17,27.3-261.18Z"/>
    <path class="cls-140" d="m348.19,427.64c12.95-43.11,29.67-83.79,49.67-121.78v7.66h6.02v452.96h-68.29v13.95c-2.31-10.26-4.38-20.58-6.22-30.97-3.69-20.78-6.44-41.81-8.23-63.02-7.15-84.84,1.16-172.58,27.05-258.8Z"/>
    <path class="cls-57" d="m353.58,429.49c12.83-42.71,29.4-83.02,49.21-120.65v4.69h1.09v452.96h-62.78v12.54c-2.28-10.16-4.34-20.39-6.17-30.69-3.65-20.59-6.38-41.42-8.15-62.44-7.08-84.06,1.15-170.99,26.8-256.41Z"/>
    <path class="cls-153" d="m358.97,431.33c12.71-42.31,29.13-82.25,48.75-119.53l-3.84,1.72v452.96h-57.27v11.14c-2.26-10.07-4.3-20.2-6.11-30.4-3.62-20.4-6.32-41.04-8.07-61.86-7.02-83.28,1.14-169.4,26.55-254.02Z"/>
    <path class="cls-64" d="m364.36,433.18c12.59-41.92,28.85-81.48,48.29-118.41h-8.78v451.71h-51.77v9.73c-2.24-9.97-4.26-20.01-6.05-30.12-3.58-20.2-6.26-40.65-8-61.28-6.95-82.49,1.13-167.81,26.3-251.64Z"/>
    <path class="cls-101" d="m369.75,435.03c12.47-41.52,28.58-80.7,47.84-117.28h-13.71v448.74h-46.26v8.32c-2.22-9.88-4.22-19.82-5.99-29.83-3.55-20.01-6.2-40.27-7.92-60.69-6.89-81.71,1.11-166.22,26.05-249.25Z"/>
    <path class="cls-178" d="m375.14,436.87c6.17-20.56,13.25-40.54,21.17-59.91,3.96-9.69,8.13-19.22,12.5-28.59h-4.93v418.12h-40.76v6.92c-2.2-9.78-4.18-19.63-5.94-29.54-3.52-19.82-6.14-39.88-7.85-60.11-6.82-80.93,1.1-164.62,25.8-246.87Z"/>
    <path class="cls-97" d="m380.53,438.72c6.11-20.36,13.12-40.15,20.96-59.34,3.92-9.59,8.05-19.03,12.38-28.32h-9.99v415.41h-35.25v5.51c-2.18-9.69-4.14-19.44-5.88-29.26-3.48-19.63-6.08-39.5-7.77-59.53-6.75-80.15,1.09-163.03,25.55-244.48Z"/>
    <path class="cls-97" d="m385.92,440.57c6.05-20.16,12.99-39.76,20.76-58.76h-2.8v384.67h-29.74v4.11c-2.16-9.59-4.1-19.25-5.82-28.97-3.45-19.44-6.02-39.11-7.7-58.95-6.69-79.37,1.08-161.44,25.3-242.09Z"/>
    <path class="cls-97" d="m389.35,441.74c6.02-20.04,12.91-39.51,20.63-58.39h-6.11v383.12h-26.23v3.21c-2.14-9.53-4.07-19.13-5.79-28.79-3.43-19.32-5.99-38.86-7.65-58.58-6.65-78.87,1.08-160.43,25.14-240.57Z"/>
    <path class="cls-124" d="m392.79,442.92c5.98-19.91,12.83-39.26,20.5-58.02h-9.41v381.58h-22.72v2.31c-2.13-9.47-4.05-19.01-5.75-28.61-3.4-19.19-5.95-38.62-7.6-58.21-6.6-78.37,1.07-159.41,24.98-239.05Z"/>
    <path class="cls-124" d="m396.23,444.1c5.94-19.78,12.75-39.01,20.37-57.65h-12.72v380.03h-19.21v1.42c-2.12-9.41-4.02-18.89-5.71-28.43-3.38-19.07-5.91-38.37-7.55-57.84-6.56-77.87,1.06-158.4,24.83-237.53Z"/>
    <path class="cls-85" d="m399.66,445.28c5.9-19.66,12.67-38.76,20.24-57.28h-16.03v378.48h-15.7v.52c-2.1-9.35-4-18.77-5.68-28.24-3.36-18.95-5.87-38.13-7.5-57.47-6.52-77.37,1.06-157.38,24.67-236.01Z"/>
    <path class="cls-172" d="m403.1,446.45c2.93-9.76,6.08-19.39,9.43-28.88h-8.66v348.9h-8.9v13.51c-1.15-4.61-2.24-9.24-3.29-13.89-2.09-9.29-3.97-18.65-5.64-28.06-3.34-18.83-5.83-37.88-7.45-57.1-6.48-76.87,1.05-156.37,24.51-234.49Z"/>
    <path class="cls-66" d="m403.87,447.63v-134.11,452.96h-5.41v12.53c-1.14-4.58-2.23-9.18-3.27-13.8-2.08-9.23-3.94-18.53-5.6-27.88-3.32-18.7-5.8-37.64-7.41-56.73-6.44-76.37,1.04-155.35,24.35-232.97h-2.66Z"/>
    <path class="cls-141" d="m403.87,448.81v-135.29,452.96h-1.92v11.54c-1.13-4.55-2.21-9.12-3.25-13.71-2.06-9.17-3.92-18.41-5.57-27.7-3.3-18.58-5.76-37.39-7.36-56.36-6.39-75.87,1.04-154.34,24.19-231.44h-6.1Z"/>
    <path class="cls-43" d="m403.87,449.99v-136.47,452.96l1.57,10.55c-1.13-4.52-2.2-9.06-3.22-13.62-2.05-9.11-3.89-18.29-5.53-27.52-3.27-18.46-5.72-37.14-7.31-55.99-6.35-75.38,1.03-153.33,24.03-229.92h-9.54Z"/>
    <path class="cls-114" d="m403.87,451.16v-137.64,449h1.86c-2.03-9.05-3.87-18.17-5.49-27.33-3.25-18.34-5.68-36.9-7.26-55.62-6.31-74.88,1.02-152.31,23.87-228.4h-12.97Z"/>
    <path class="cls-169" d="m403.87,452.34v-138.82,448.1h5.37c-2.02-8.99-3.84-18.04-5.46-27.15-3.23-18.22-5.64-36.65-7.21-55.25-6.27-74.38,1.01-151.3,23.71-226.88h-16.41Z"/>
    <path class="cls-203" d="m403.87,453.52v-140,420.23h3.46c-3.21-18.09-5.61-36.41-7.16-54.88-3.11-36.94-2.86-74.51.99-112.23,1.92-18.86,4.75-37.76,8.5-56.63h-5.78v-56.5Z"/>
    <path class="cls-39" d="m403.87,454.7v-141.18,419.52h7.01c-3.19-17.97-5.57-36.16-7.11-54.51-3.09-36.69-2.84-74.01.98-111.47h-.87v-112.36Z"/>
  </g>
  <g class="cls-2">
    <rect class="cls-204" x="486.92" y="204.02" width="111.08" height="671.95"/>
    <polygon class="cls-204" points="484.46 353.77 484.46 201.4 600.45 201.4 600.45 878.6 484.46 878.6 484.46 353.77"/>
    <polygon class="cls-45" points="484.46 355.62 484.46 201.4 600.45 201.4 600.45 878.6 484.46 878.6 484.46 355.62"/>
    <polygon class="cls-201" points="484.46 357.47 484.46 201.4 600.45 201.4 600.45 878.6 484.46 878.6 484.46 357.47"/>
    <polygon class="cls-74" points="484.46 359.31 484.46 201.4 600.45 201.4 600.45 878.6 484.46 878.6 484.46 359.31"/>
    <polygon class="cls-106" points="484.46 361.16 484.46 201.4 600.45 201.4 600.45 878.6 484.46 878.6 484.46 361.16"/>
    <polygon class="cls-47" points="484.46 363.01 484.46 201.4 600.45 201.4 600.45 878.6 484.46 878.6 484.46 363.01"/>
    <polygon class="cls-137" points="484.46 364.85 484.46 201.4 600.45 201.4 600.45 878.6 484.46 878.6 484.46 364.85"/>
    <polygon class="cls-69" points="484.46 366.7 484.46 201.4 600.45 201.4 600.45 878.6 484.46 878.6 484.46 366.7"/>
    <polygon class="cls-131" points="484.46 368.55 484.46 201.4 600.45 201.4 600.45 878.6 484.46 878.6 484.46 368.55"/>
    <polygon class="cls-113" points="484.46 370.39 484.46 201.4 600.45 201.4 600.45 878.6 484.46 878.6 484.46 370.39"/>
    <polygon class="cls-157" points="484.46 372.24 484.46 201.4 600.45 201.4 600.45 878.6 484.46 878.6 484.46 372.24"/>
    <polygon class="cls-180" points="484.46 374.09 484.46 201.4 600.45 201.4 600.45 878.6 484.46 878.6 484.46 374.09"/>
    <polygon class="cls-144" points="484.46 375.93 484.46 201.4 600.45 201.4 600.45 878.6 484.46 878.6 484.46 375.93"/>
    <polygon class="cls-202" points="484.46 377.78 484.46 201.4 600.45 201.4 600.45 878.6 484.46 878.6 484.46 377.78"/>
    <polygon class="cls-130" points="484.46 379.63 484.46 201.4 600.45 201.4 600.45 878.6 484.46 878.6 484.46 379.63"/>
    <polygon class="cls-63" points="484.46 381.47 484.46 201.4 600.45 201.4 600.45 878.6 484.46 878.6 484.46 381.47"/>
    <polygon class="cls-19" points="484.46 383.32 484.46 201.4 600.45 201.4 600.45 878.6 484.46 878.6 484.46 383.32"/>
    <polygon class="cls-174" points="484.46 385.17 484.46 201.4 600.45 201.4 600.45 878.6 484.46 878.6 484.46 385.17"/>
    <polygon class="cls-148" points="484.46 387.01 484.46 201.4 600.45 201.4 600.45 878.6 484.46 878.6 484.46 387.01"/>
    <polygon class="cls-99" points="484.46 388.86 484.46 201.4 600.45 201.4 600.45 878.6 484.46 878.6 484.46 388.86"/>
    <polygon class="cls-32" points="484.46 390.71 484.46 201.4 600.45 201.4 600.45 878.6 484.46 878.6 484.46 390.71"/>
    <polygon class="cls-100" points="484.46 392.55 484.46 201.4 600.45 201.4 600.45 878.6 484.46 878.6 484.46 392.55"/>
    <polygon class="cls-161" points="484.46 394.4 484.46 201.4 600.45 201.4 600.45 878.6 484.46 878.6 484.46 394.4"/>
    <polygon class="cls-76" points="484.46 396.25 484.46 201.4 600.45 201.4 600.45 878.6 484.46 878.6 484.46 396.25"/>
    <polygon class="cls-8" points="484.46 398.09 484.46 201.4 600.45 201.4 600.45 878.6 484.46 878.6 484.46 398.09"/>
    <polygon class="cls-146" points="484.46 399.94 484.46 201.4 600.45 201.4 600.45 878.6 484.46 878.6 484.46 399.94"/>
    <polygon class="cls-206" points="484.46 401.79 484.46 201.4 600.45 201.4 600.45 878.6 484.46 878.6 484.46 401.79"/>
    <polygon class="cls-119" points="484.46 403.63 484.46 201.4 600.45 201.4 600.45 878.6 484.46 878.6 484.46 403.63"/>
    <polygon class="cls-12" points="484.46 405.48 484.46 201.4 600.45 201.4 600.45 878.6 484.46 878.6 484.46 405.48"/>
    <polygon class="cls-62" points="484.46 407.33 484.46 201.4 600.45 201.4 600.45 878.6 484.46 878.6 484.46 407.33"/>
    <polygon class="cls-115" points="484.46 409.17 484.46 201.4 600.45 201.4 600.45 878.6 484.46 878.6 484.46 409.17"/>
    <polygon class="cls-78" points="484.46 411.02 484.46 201.4 600.45 201.4 600.45 878.6 484.46 878.6 484.46 411.02"/>
    <polygon class="cls-48" points="484.46 412.87 484.46 201.4 600.45 201.4 600.45 878.6 484.46 878.6 484.46 412.87"/>
    <polygon class="cls-82" points="484.46 414.71 484.46 201.4 600.45 201.4 600.45 878.6 484.46 878.6 484.46 414.71"/>
    <polygon class="cls-20" points="484.46 416.56 484.46 201.4 600.45 201.4 600.45 878.6 484.46 878.6 484.46 416.56"/>
    <polygon class="cls-149" points="484.46 418.41 484.46 201.4 600.45 201.4 600.45 878.6 484.46 878.6 484.46 418.41"/>
    <polygon class="cls-195" points="484.46 420.25 484.46 201.4 600.45 201.4 600.45 878.6 484.46 878.6 484.46 420.25"/>
    <polygon class="cls-81" points="484.46 422.1 484.46 201.4 600.45 201.4 600.45 878.6 484.46 878.6 484.46 422.1"/>
    <polygon class="cls-190" points="484.46 423.95 484.46 201.4 600.45 201.4 600.45 878.6 484.46 878.6 484.46 423.95"/>
    <polygon class="cls-22" points="484.46 425.79 484.46 201.4 600.45 201.4 600.45 878.6 484.46 878.6 484.46 425.79"/>
    <polygon class="cls-140" points="484.46 427.64 484.46 201.4 600.45 201.4 600.45 878.6 484.46 878.6 484.46 427.64"/>
    <polygon class="cls-57" points="484.46 429.49 484.46 204.27 484.46 201.4 600.45 201.4 600.45 878.6 484.46 878.6 484.46 429.49"/>
    <path class="cls-153" d="m484.46,431.33v-223.13h-8.75c6.38-7.92,12.93-15.66,19.64-23.21v16.41h105.1v677.2h-115.99v-447.27Z"/>
    <path class="cls-64" d="m484.46,433.18v-221.03h-4.46c6.32-7.85,12.81-15.51,19.46-22.99v12.25h100.99v677.2h-115.99v-445.42Z"/>
    <path class="cls-101" d="m484.46,435.03v-218.93h-.17c6.26-7.77,12.69-15.37,19.28-22.78v8.08h96.89v677.2h-115.99v-443.57Z"/>
    <path class="cls-178" d="m484.46,436.87v-193.21h-13.98c5.87-8.05,11.91-15.93,18.11-23.63,6.2-7.7,12.57-15.22,19.09-22.56v3.92h92.78v677.2h-115.99v-441.73Z"/>
    <path class="cls-97" d="m484.46,438.72v-191.34h-9.51c5.81-7.97,11.79-15.78,17.93-23.4,6.14-7.62,12.45-15.07,18.91-22.34,3.23-3.63,6.5-7.22,9.8-10.77v10.53h78.86v677.2h-115.99v-439.88Z"/>
    <path class="cls-97" d="m484.46,440.57v-189.47h-5.04c5.75-7.9,11.68-15.62,17.76-23.17,12.17-15.1,24.97-29.5,38.36-43.17v16.65h64.92v677.2h-115.99v-438.03Z"/>
    <path class="cls-97" d="m484.46,441.74v-188.28h-2.19c5.72-7.85,11.6-15.52,17.65-23.03,12.09-15.01,24.82-29.32,38.12-42.9v13.87h62.42v677.2h-115.99v-436.86Z"/>
    <path class="cls-124" d="m484.46,442.92v-163.2h-15.88c10.68-16.26,22.06-31.86,34.07-46.77,12.01-14.91,24.66-29.13,37.88-42.63v11.08h59.92v677.2h-115.99v-435.68Z"/>
    <path class="cls-124" d="m484.46,444.1v-162.16h-12.93c10.62-16.16,21.92-31.66,33.86-46.47,11.94-14.82,24.5-28.95,37.64-42.36v8.3h57.43v677.2h-115.99v-434.5Z"/>
    <path class="cls-85" d="m484.46,445.28v-161.12h-9.97c10.55-16.05,21.78-31.46,33.64-46.18,11.86-14.72,24.35-28.76,37.4-42.09v5.51h54.93v677.2h-115.99v-433.32Z"/>
    <path class="cls-172" d="m484.46,446.45v-160.09h-7.02c10.48-15.95,21.64-31.25,33.42-45.88,11.78-14.63,24.19-28.58,37.16-41.82v2.73h52.43v677.2h-115.99v-432.15Z"/>
    <path class="cls-66" d="m484.46,447.63v-159.05h-4.07c10.41-15.85,21.5-31.05,33.21-45.58,11.71-14.53,24.03-28.39,36.92-41.54,3.22-3.29,6.48-6.53,9.77-9.73v9.67h40.17v677.2h-115.99v-430.97Z"/>
    <path class="cls-141" d="m484.46,448.81v-158.01h-1.11c10.34-15.74,21.36-30.85,32.99-45.28s23.87-28.2,36.68-41.27c6.4-6.53,12.94-12.89,19.61-19.07v16.23h27.83v677.2h-115.99v-429.79Z"/>
    <path class="cls-43" d="m484.46,449.99v-133.04h-13.06c4.8-8.13,9.77-16.11,14.9-23.93,10.28-15.64,21.22-30.64,32.77-44.99,11.55-14.34,23.72-28.02,36.43-41,6.36-6.49,12.86-12.81,19.48-18.95v13.32h25.46v677.2h-115.99v-428.61Z"/>
    <path class="cls-114" d="m484.46,451.16v-132.16h-10.01c4.76-8.08,9.7-16,14.81-23.77,10.21-15.53,21.08-30.44,32.55-44.69,11.48-14.25,23.56-27.83,36.19-40.73,6.32-6.45,12.77-12.72,19.35-18.82v10.41h23.09v677.2h-115.99v-427.44Z"/>
    <path class="cls-169" d="m484.46,452.34v-131.28h-6.95c4.73-8.02,9.64-15.9,14.71-23.61,10.14-15.43,20.94-30.24,32.34-44.39s23.4-27.65,35.95-40.46c6.27-6.41,12.68-12.64,19.22-18.7v7.5h20.73v677.2h-115.99v-426.26Z"/>
    <path class="cls-203" d="m484.46,453.52v-130.4h-3.9c4.7-7.97,9.57-15.79,14.61-23.45,10.07-15.33,20.8-30.04,32.12-44.09,11.32-14.06,23.25-27.46,35.71-40.19,6.23-6.36,12.6-12.55,19.1-18.57v4.59h18.36v677.2h-115.99v-425.08Z"/>
    <path class="cls-39" d="m484.46,454.7v-105.33h-14.34c17.29-32.85,37.41-63.36,59.91-91.28,11.25-13.96,23.09-27.28,35.47-39.92,6.19-6.32,12.51-12.47,18.97-18.45v1.68h15.99v677.2h-115.99v-423.9Z"/>
    <path class="cls-116" d="m484.46,455.87v-104.61h-11.2c17.18-32.63,37.16-62.93,59.5-90.66,22.34-27.73,47.05-52.9,73.67-75.25l-5.97,16.05v677.2h-115.99v-422.73Z"/>
    <path class="cls-110" d="m484.46,457.05v-103.89h-8.05c17.06-32.4,36.9-62.5,59.09-90.04,22.19-27.54,46.72-52.54,73.16-74.74l-8.21,13.02v677.2h-115.99v-421.55Z"/>
    <path class="cls-139" d="m484.46,458.23v-103.18h-4.91c16.94-32.18,36.65-62.07,58.69-89.42,22.04-27.35,46.4-52.18,72.66-74.22l-10.44,10v677.2h-115.99v-420.37Z"/>
    <path class="cls-41" d="m484.46,459.41v-102.46h-1.76c16.82-31.96,36.39-61.64,58.28-88.8,21.88-27.16,46.08-51.81,72.15-73.71l-12.68,6.97v677.2h-115.99v-419.19Z"/>
    <path class="cls-41" d="m484.46,460.58v-77.53h-10.63c3.83-8.21,7.83-16.29,12.01-24.22,16.71-31.73,36.14-61.21,57.87-88.18,21.73-26.98,45.76-51.45,71.65-73.19l-14.91,3.94v677.2h-115.99v-418.02Z"/>
    <path class="cls-91" d="m484.46,461.76v-76.98h-7.4c3.8-8.15,7.78-16.17,11.93-24.05,16.59-31.51,35.89-60.78,57.46-87.56,21.58-26.79,45.44-51.09,71.14-72.68l-17.14.91v677.2h-114.9v9.69c-1.95-3.82-3.86-7.67-5.72-11.54h4.63v-414.99Z"/>
    <path class="cls-42" d="m484.46,462.94v-51.74h-14.96c6.84-16.73,14.4-32.93,22.64-48.57,16.47-31.29,35.63-60.35,57.06-86.94,10.71-13.3,21.99-25.98,33.78-38.02,5.9-6.02,11.92-11.88,18.06-17.57h-.58v658.5h-111.73v7.84c-1.94-3.79-3.83-7.61-5.68-11.45h1.42v-412.05Z"/>
    <path class="cls-54" d="m484.46,464.12v-51.37h-11.65c6.79-16.61,14.3-32.69,22.47-48.23,16.35-31.06,35.38-59.91,56.65-86.32,10.64-13.2,21.83-25.79,33.54-37.75,5.85-5.98,11.83-11.79,17.94-17.44h-2.95v655.59h-102.67v17.22c-4.01-7.43-7.85-14.97-11.53-22.6-3.67-7.63-7.18-15.35-10.51-23.16h8.71v-385.95Z"/>
    <path class="cls-40" d="m484.46,465.29v-51h-8.35c6.74-16.49,14.19-32.46,22.31-47.88,16.24-30.84,35.12-59.48,56.24-85.7,10.56-13.11,21.68-25.61,33.3-37.47,5.81-5.93,11.75-11.71,17.81-17.32h-5.32v652.68h-99.55v15.3c-3.98-7.38-7.8-14.86-11.44-22.44-7.29-15.15-13.91-30.67-19.83-46.5h14.82v-359.66Z"/>
    <path class="cls-193" d="m484.46,466.47v-50.63h-5.04c6.69-16.37,14.09-32.22,22.15-47.53,16.12-30.62,34.87-59.05,55.84-85.08,10.48-13.01,21.52-25.42,33.06-37.2,5.77-5.89,11.66-11.62,17.68-17.19h-7.69v649.77h-96.42v13.37c-3.95-7.33-7.74-14.76-11.36-22.27-7.24-15.04-13.81-30.45-19.68-46.17h11.47v-357.06Z"/>
    <path class="cls-165" d="m484.46,467.65v-50.26h-1.74c6.64-16.25,13.99-31.99,21.99-47.19,16-30.39,34.61-58.62,55.43-84.46,10.41-12.92,21.36-25.24,32.82-36.93,5.73-5.85,11.58-11.54,17.55-17.07h-10.05v646.86h-93.29v11.45c-3.92-7.27-7.68-14.65-11.28-22.11-7.19-14.93-13.71-30.22-19.54-45.83h8.11v-354.45Z"/>
    <path class="cls-171" d="m468.4,468.83c20.57-68.49,53.15-129.28,94.48-180.57,10.33-12.82,21.21-25.05,32.58-36.66,5.69-5.8,11.49-11.45,17.42-16.94h-12.42v643.95h-90.17v9.52c-3.9-7.22-7.63-14.54-11.2-21.95-7.14-14.82-13.61-30-19.39-45.49h4.76v-351.85h-16.06Z"/>
    <path class="cls-176" d="m471.84,470c20.41-67.98,52.76-128.32,93.78-179.24,10.25-12.73,21.05-24.87,32.34-36.39,5.64-5.76,11.41-11.37,17.29-16.82h-14.79v641.04h-87.04v7.6c-3.87-7.17-7.57-14.43-11.11-21.79-14.17-29.42-25.7-60.28-34.41-92.15h16.56v-302.25h-12.62Z"/>
    <path class="cls-175" d="m475.28,471.18c20.26-67.47,52.37-127.37,93.08-177.9,10.18-12.63,20.89-24.68,32.09-36.12,5.6-5.72,11.32-11.28,17.16-16.69h-17.16v638.13h-83.91v5.67c-3.84-7.11-7.52-14.32-11.03-21.62-14.06-29.2-25.51-59.83-34.15-91.46h13.1v-300h-9.18Z"/>
    <path class="cls-126" d="m478.71,472.36c20.11-66.97,51.97-126.41,92.38-176.56,10.1-12.54,20.74-24.5,31.85-35.85h-2.49v618.65h-80.78v3.74c-3.81-7.06-7.46-14.22-10.95-21.46-13.95-28.98-25.32-59.38-33.89-90.78h9.63v-297.75h-5.75Z"/>
    <path class="cls-173" d="m482.15,473.54c19.96-66.46,51.58-125.45,91.68-175.23,10.02-12.44,20.58-24.31,31.61-35.57h-4.99v615.87h-77.66v1.82c-3.78-7.01-7.4-14.11-10.86-21.3-13.85-28.76-25.13-58.93-33.64-90.09h6.16v-295.49h-2.31Z"/>
    <path class="cls-152" d="m485.59,474.71c19.81-65.95,51.19-124.5,90.98-173.89,9.95-12.35,20.42-24.13,31.37-35.3h-7.48v613.08h-68.79v10.25c-1.95-3.43-3.87-6.88-5.74-10.36-3.75-6.95-7.35-14-10.78-21.14-13.74-28.54-24.94-58.48-33.38-89.4h2.7v-243.61h-11.23c3.3-16.58,7.41-33.14,12.36-49.63Z"/>
    <path class="cls-107" d="m489.02,475.89c19.65-65.45,50.79-123.54,90.28-172.55,9.87-12.25,20.26-23.94,31.13-35.03h-9.98v610.29h-65.7v8.25c-1.94-3.4-3.84-6.83-5.7-10.28-3.72-6.9-7.29-13.89-10.7-20.98-27.27-56.65-44.43-118.85-49.86-183.25h15.97v-97.83h-15.11c3.35-32.88,9.84-65.89,19.67-98.62Z"/>
    <path class="cls-96" d="m492.46,477.07c19.5-64.94,50.4-122.58,89.58-171.22,9.8-12.16,20.11-23.75,30.89-34.76h-12.48v607.51h-56.74v16.3c-8-13.31-15.39-27.02-22.15-41.07-27.06-56.21-44.09-117.93-49.47-181.83h12.37v-97.08h-11.52c3.33-32.63,9.77-65.38,19.52-97.85Z"/>
    <path class="cls-70" d="m495.9,478.25c19.35-64.43,50.01-121.63,88.88-169.88,9.72-12.06,19.95-23.57,30.65-34.49h-14.97v604.72h-53.7v14.21c-7.93-13.21-15.27-26.81-21.98-40.75-26.85-55.77-43.74-117.01-49.09-180.41-5.34-63.4.87-128.98,20.21-193.41Z"/>
    <path class="cls-135" d="m499.34,479.42c19.2-63.93,49.61-120.67,88.18-168.55,4.82-5.98,9.77-11.83,14.84-17.53h-1.9v585.26h-50.66v12.13c-7.87-13.1-15.15-26.6-21.81-40.43-26.64-55.33-43.4-116.09-48.7-178.99-5.3-62.91.86-127.96,20.06-191.89Z"/>
    <path class="cls-109" d="m502.77,480.6c19.04-63.42,49.22-119.71,87.48-167.21,4.78-5.94,9.69-11.74,14.72-17.4h-4.52v582.6h-47.63v10.05c-7.81-13-15.03-26.38-21.64-40.11-26.43-54.89-43.06-115.17-48.31-177.57-5.26-62.41.85-126.95,19.9-190.36Z"/>
    <path class="cls-185" d="m506.21,481.78c18.89-62.91,48.83-118.76,86.78-165.87,4.74-5.89,9.61-11.64,14.6-17.26h-7.14v579.95h-44.59v7.96c-7.75-12.89-14.91-26.17-21.46-39.79-52.44-108.9-65.98-239.17-28.19-365Z"/>
    <path class="cls-25" d="m509.65,482.96c18.74-62.4,48.43-117.8,86.09-164.54,4.71-5.84,9.54-11.55,14.49-17.12h-9.76v577.3h-41.55v5.88c-7.68-12.79-14.79-25.96-21.29-39.47-52.01-108.03-65.44-237.25-27.96-362.06Z"/>
    <path class="cls-29" d="m513.08,484.13c18.59-61.9,48.04-116.84,85.39-163.2,4.67-5.79,9.46-11.46,14.37-16.98h-12.38v574.64h-38.52v3.8c-7.62-12.69-14.67-25.75-21.12-39.15-51.59-107.15-64.91-235.32-27.74-359.12Z"/>
    <path class="cls-184" d="m516.52,485.31c18.44-61.39,47.65-115.89,84.69-161.86h-.75v555.15h-35.48v1.71c-7.56-12.58-14.55-25.54-20.94-38.83-51.17-106.27-64.38-233.39-27.51-356.17Z"/>
    <path class="cls-158" d="m519.96,486.49c18.28-60.88,47.25-114.93,83.99-160.53h-3.49v552.64h-20.78v18.06c-4.03-6.05-7.92-12.19-11.66-18.43-7.5-12.48-14.43-25.33-20.77-38.5-50.75-105.39-63.85-231.47-27.28-353.23Z"/>
    <path class="cls-33" d="m523.39,487.67c18.13-60.38,46.86-113.97,83.29-159.19h-6.23v550.12h-17.84v15.83c-3.99-6-7.85-12.09-11.57-18.28-7.43-12.38-14.31-25.12-20.6-38.18-50.32-104.52-63.32-229.54-27.06-350.29Z"/>
    <path class="cls-181" d="m526.83,488.84c17.98-59.87,46.47-113.01,82.59-157.85h-8.97v547.61h-14.9v13.59c-3.96-5.95-7.78-11.99-11.47-18.13-7.37-12.27-14.19-24.91-20.43-37.86-49.9-103.64-62.79-227.61-26.83-347.35Z"/>
    <path class="cls-162" d="m530.27,490.02c17.83-59.36,46.07-112.06,81.89-156.52h-11.7v545.1h-11.96v11.35c-3.93-5.9-7.72-11.89-11.37-17.97-7.31-12.17-14.07-24.7-20.25-37.54-49.48-102.76-62.26-225.69-26.6-344.41Z"/>
    <path class="cls-30" d="m533.7,491.2c17.67-58.86,45.68-111.1,81.19-155.18h-14.44v542.58h-9.02v9.11c-3.89-5.85-7.65-11.79-11.28-17.82-7.25-12.06-13.95-24.49-20.08-37.22-49.06-101.88-61.72-223.76-26.37-341.47Z"/>
    <path class="cls-94" d="m537.14,492.38c17.52-58.35,45.29-110.14,80.49-153.85h-17.18v540.07h-6.08v6.88c-3.86-5.8-7.59-11.69-11.18-17.67-7.18-11.96-13.83-24.28-19.91-36.9-48.63-101.01-61.19-221.83-26.15-338.53Z"/>
    <path class="cls-90" d="m540.58,493.55c8.69-28.92,19.91-56.22,33.32-81.7,6.71-12.74,13.96-25.03,21.72-36.84,3.88-5.9,7.89-11.69,12.01-17.35h-7.18v520.94h-3.14v4.64c-3.83-5.75-7.52-11.59-11.08-17.51-7.12-11.86-13.71-24.07-19.73-36.58-48.21-100.13-60.66-219.9-25.92-335.59Z"/>
    <path class="cls-129" d="m544.02,494.73c8.61-28.67,19.73-55.73,33.03-80.98,6.65-12.63,13.84-24.81,21.53-36.51,3.85-5.85,7.82-11.59,11.91-17.2h-10.03v518.57h-.2v2.4c-3.79-5.7-7.46-11.48-10.99-17.36-7.06-11.75-13.59-23.85-19.56-36.26-47.79-99.25-60.13-217.98-25.69-332.65Z"/>
    <path class="cls-186" d="m547.45,495.91c8.53-28.41,19.56-55.23,32.74-80.27,6.59-12.52,13.72-24.59,21.34-36.19h-1.08v499.15l14.4,16.82c-16.06-21.82-30.1-45.2-41.94-69.8-47.37-98.37-59.6-216.05-25.47-329.71Z"/>
    <path class="cls-167" d="m550.89,497.09c8.46-28.16,19.39-54.74,32.45-79.55,6.53-12.41,13.6-24.37,21.15-35.87h-4.03v494.86h5.68c-3.73-5.59-7.32-11.28-10.79-17.05-6.93-11.54-13.35-23.43-19.21-35.62-46.94-97.5-59.07-214.12-25.24-326.77Z"/>
    <path class="cls-31" d="m554.33,498.26c8.38-27.91,19.21-54.25,32.16-78.84,6.47-12.29,13.47-24.15,20.96-35.55h-6.99v490.41h8.62c-3.69-5.54-7.26-11.18-10.69-16.9-6.87-11.44-13.23-23.22-19.04-35.3-46.52-96.62-58.53-212.2-25.01-323.83Z"/>
    <path class="cls-79" d="m557.76,499.44c8.3-27.65,19.04-53.76,31.86-78.12,6.41-12.18,13.35-23.93,20.77-35.22h-9.94v469.21h.96c-6.81-11.34-13.11-23.01-18.87-34.98-46.1-95.74-58-210.27-24.78-320.89Z"/>
    <path class="cls-187" d="m561.2,500.62c8.23-27.4,18.86-53.26,31.57-77.4,6.35-12.07,13.23-23.71,20.58-34.9h-12.9v464.91h4c-6.75-11.23-12.99-22.8-18.7-34.66-45.68-94.87-57.47-208.34-24.56-317.95Z"/>
    <path class="cls-103" d="m564.64,501.8c8.15-27.15,18.69-52.77,31.28-76.69,6.3-11.96,13.11-23.49,20.39-34.58h-15.85v460.61h7.04c-6.68-11.13-12.87-22.59-18.52-34.34-45.25-93.99-56.94-206.42-24.33-315.01Z"/>
    <path class="cls-88" d="m568.07,502.97c8.08-26.89,18.51-52.28,30.99-75.97,3.12-5.92,6.36-11.74,9.73-17.45h-8.34v439.51h10.07c-6.62-11.02-12.75-22.38-18.35-34.02-44.83-93.11-56.41-204.49-24.1-312.06Z"/>
    <path class="cls-143" d="m571.51,504.15c8-26.64,18.34-51.78,30.7-75.26h-1.75v418.08h13.11c-6.56-10.92-12.63-22.17-18.18-33.7-44.41-92.23-55.88-202.56-23.88-309.12Z"/>
    <path class="cls-151" d="m574.95,505.33c7.92-26.39,18.16-51.29,30.4-74.54h-4.9v414.1h16.15c-6.5-10.82-12.51-21.96-18-33.38-43.99-91.36-55.35-200.63-23.65-306.18Z"/>
    <path class="cls-73" d="m578.38,506.51c7.85-26.13,17.99-50.8,30.11-73.83h-8.04v377.07h1.35c-43.56-90.48-54.81-198.71-23.42-303.24Z"/>
    <path class="cls-150" d="m581.82,507.68c7.77-25.88,17.82-50.31,29.82-73.11h-11.19v373.41h4.56c-43.14-89.6-54.28-196.78-23.19-300.3Z"/>
    <path class="cls-142" d="m585.26,508.86c7.7-25.63,17.64-49.81,29.53-72.39h-14.33v369.75h7.77c-42.72-88.72-53.75-194.85-22.97-297.36Z"/>
    <path class="cls-28" d="m588.7,510.04c3.81-12.69,8.18-25.02,13.06-36.97h-1.3v331.39h10.98c-42.3-87.85-53.22-192.93-22.74-294.42Z"/>
    <path class="cls-86" d="m592.13,511.22c3.77-12.56,8.09-24.77,12.93-36.6h-4.61v328.08h14.19c-41.87-86.97-52.69-191-22.51-291.48Z"/>
    <path class="cls-132" d="m595.57,512.39c3.73-12.43,8.01-24.52,12.8-36.23h-7.92v291.74h3.32c-4.2-11.25-7.9-22.72-11.09-34.38-6.37-23.32-10.66-47.37-12.72-71.84-4.12-48.94.67-99.55,15.6-149.29Z"/>
    <path class="cls-102" d="m599.01,513.57c3.7-12.31,7.93-24.27,12.67-35.86h-11.22v288.76h6.67c-4.16-11.13-7.82-22.49-10.97-34.03-6.3-23.08-10.55-46.88-12.59-71.11-4.08-48.44.66-98.54,15.44-147.76Z"/>
    <path class="cls-177" d="m600.45,514.75v-239.68,489.97h10.02c-4.12-11.02-7.74-22.26-10.86-33.68-6.24-22.84-10.44-46.4-12.46-70.37-4.04-47.94.65-97.52,15.28-146.24h-1.99Z"/>
    <path class="cls-56" d="m600.45,515.93v-237.18,451.55h2.63c-6.17-22.6-10.33-45.92-12.33-69.64-4-47.44.65-96.51,15.13-144.72h-5.43Z"/>
    <path class="cls-168" d="m600.45,517.1v-234.69,446.8h6.1c-6.11-22.36-10.22-45.44-12.2-68.91-3.96-46.95.64-95.49,14.97-143.2h-8.86Z"/>
    <path class="cls-21" d="m600.45,518.28v-232.2,442.05h9.56c-6.04-22.13-10.11-44.95-12.07-68.18-3.91-46.45.63-94.48,14.81-141.68h-12.3Z"/>
    <path class="cls-34" d="m600.45,519.46v-229.7,369.86h1.09c-3.87-45.95.63-93.46,14.65-140.16h-15.74Z"/>
  </g>
  <g class="cls-3">
    <rect class="cls-204" x="681.04" y="316.14" width="111.08" height="447.71"/>
    <polygon class="cls-204" points="678.58 353.77 678.58 313.52 794.58 313.52 794.58 766.48 678.58 766.48 678.58 353.77"/>
    <polygon class="cls-45" points="678.58 355.62 678.58 313.52 794.58 313.52 794.58 766.48 678.58 766.48 678.58 355.62"/>
    <polygon class="cls-201" points="678.58 357.47 678.58 313.52 794.58 313.52 794.58 766.48 678.58 766.48 678.58 357.47"/>
    <polygon class="cls-74" points="678.58 359.31 678.58 313.52 794.58 313.52 794.58 766.48 678.58 766.48 678.58 359.31"/>
    <polygon class="cls-106" points="678.58 361.16 678.58 313.52 794.58 313.52 794.58 766.48 678.58 766.48 678.58 361.16"/>
    <polygon class="cls-47" points="678.58 363.01 678.58 313.52 794.58 313.52 794.58 766.48 678.58 766.48 678.58 363.01"/>
    <polygon class="cls-137" points="678.58 364.85 678.58 313.52 794.58 313.52 794.58 766.48 678.58 766.48 678.58 364.85"/>
    <polygon class="cls-69" points="678.58 366.7 678.58 313.52 794.58 313.52 794.58 766.48 678.58 766.48 678.58 366.7"/>
    <polygon class="cls-131" points="678.58 368.55 678.58 313.52 794.58 313.52 794.58 766.48 678.58 766.48 678.58 368.55"/>
    <polygon class="cls-113" points="678.58 370.39 678.58 313.52 794.58 313.52 794.58 766.48 678.58 766.48 678.58 370.39"/>
    <polygon class="cls-157" points="678.58 372.24 678.58 313.52 794.58 313.52 794.58 766.48 678.58 766.48 678.58 372.24"/>
    <polygon class="cls-180" points="678.58 374.09 678.58 313.52 794.58 313.52 794.58 766.48 678.58 766.48 678.58 374.09"/>
    <polygon class="cls-144" points="678.58 375.93 678.58 313.52 794.58 313.52 794.58 766.48 678.58 766.48 678.58 375.93"/>
    <polygon class="cls-202" points="678.58 377.78 678.58 313.52 794.58 313.52 794.58 766.48 678.58 766.48 678.58 377.78"/>
    <polygon class="cls-130" points="678.58 379.63 678.58 313.52 794.58 313.52 794.58 766.48 678.58 766.48 678.58 379.63"/>
    <polygon class="cls-63" points="678.58 381.47 678.58 313.52 794.58 313.52 794.58 766.48 678.58 766.48 678.58 381.47"/>
    <polygon class="cls-19" points="678.58 383.32 678.58 313.52 794.58 313.52 794.58 766.48 678.58 766.48 678.58 383.32"/>
    <polygon class="cls-174" points="678.58 385.17 678.58 313.52 794.58 313.52 794.58 766.48 678.58 766.48 678.58 385.17"/>
    <polygon class="cls-148" points="678.58 387.01 678.58 313.52 794.58 313.52 794.58 766.48 678.58 766.48 678.58 387.01"/>
    <polygon class="cls-99" points="678.58 388.86 678.58 313.52 794.58 313.52 794.58 766.48 678.58 766.48 678.58 388.86"/>
    <polygon class="cls-32" points="678.58 390.71 678.58 313.52 794.58 313.52 794.58 766.48 678.58 766.48 678.58 390.71"/>
    <polygon class="cls-100" points="678.58 392.55 678.58 313.52 794.58 313.52 794.58 766.48 678.58 766.48 678.58 392.55"/>
    <polygon class="cls-161" points="678.58 394.4 678.58 313.52 794.58 313.52 794.58 766.48 678.58 766.48 678.58 394.4"/>
    <polygon class="cls-76" points="678.58 396.25 678.58 313.52 794.58 313.52 794.58 766.48 678.58 766.48 678.58 396.25"/>
    <polygon class="cls-8" points="678.58 398.09 678.58 313.52 794.58 313.52 794.58 766.48 678.58 766.48 678.58 398.09"/>
    <polygon class="cls-146" points="678.58 399.94 678.58 313.52 794.58 313.52 794.58 766.48 678.58 766.48 678.58 399.94"/>
    <polygon class="cls-206" points="678.58 401.79 678.58 313.52 794.58 313.52 794.58 766.48 678.58 766.48 678.58 401.79"/>
    <polygon class="cls-119" points="678.58 403.63 678.58 313.52 794.58 313.52 794.58 766.48 678.58 766.48 678.58 403.63"/>
    <polygon class="cls-12" points="678.58 405.48 678.58 313.52 794.58 313.52 794.58 766.48 678.58 766.48 678.58 405.48"/>
    <polygon class="cls-62" points="678.58 407.33 678.58 313.52 794.58 313.52 794.58 766.48 678.58 766.48 678.58 407.33"/>
    <polygon class="cls-115" points="678.58 409.17 678.58 313.52 794.58 313.52 794.58 766.48 678.58 766.48 678.58 409.17"/>
    <polygon class="cls-78" points="678.58 411.02 678.58 313.52 794.58 313.52 794.58 766.48 678.58 766.48 678.58 411.02"/>
    <polygon class="cls-48" points="678.58 412.87 678.58 313.52 794.58 313.52 794.58 766.48 678.58 766.48 678.58 412.87"/>
    <polygon class="cls-82" points="678.58 414.71 678.58 313.52 794.58 313.52 794.58 766.48 678.58 766.48 678.58 414.71"/>
    <polygon class="cls-20" points="678.58 416.56 678.58 313.52 794.58 313.52 794.58 766.48 678.58 766.48 678.58 416.56"/>
    <polygon class="cls-149" points="678.58 418.41 678.58 313.52 794.58 313.52 794.58 766.48 678.58 766.48 678.58 418.41"/>
    <polygon class="cls-195" points="678.58 420.25 678.58 313.52 794.58 313.52 794.58 766.48 678.58 766.48 678.58 420.25"/>
    <polygon class="cls-81" points="678.58 422.1 678.58 313.52 794.58 313.52 794.58 766.48 678.58 766.48 678.58 422.1"/>
    <polygon class="cls-190" points="678.58 423.95 678.58 313.52 794.58 313.52 794.58 766.48 678.58 766.48 678.58 423.95"/>
    <polygon class="cls-22" points="678.58 425.79 678.58 313.52 794.58 313.52 794.58 766.48 678.58 766.48 678.58 425.79"/>
    <polygon class="cls-140" points="678.58 427.64 678.58 313.52 794.58 313.52 794.58 766.48 678.58 766.48 678.58 427.64"/>
    <polygon class="cls-57" points="678.58 429.49 678.58 313.52 794.58 313.52 794.58 766.48 678.58 766.48 678.58 429.49"/>
    <polygon class="cls-153" points="678.58 431.33 678.58 313.52 794.58 313.52 794.58 766.48 678.58 766.48 678.58 431.33"/>
    <polygon class="cls-64" points="678.58 433.18 678.58 313.52 794.58 313.52 794.58 766.48 678.58 766.48 678.58 433.18"/>
    <polygon class="cls-101" points="678.58 435.03 678.58 313.52 794.58 313.52 794.58 766.48 678.58 766.48 678.58 435.03"/>
    <polygon class="cls-178" points="678.58 436.87 678.58 313.52 794.58 313.52 794.58 766.48 678.58 766.48 678.58 436.87"/>
    <polygon class="cls-97" points="678.58 438.72 678.58 313.52 794.58 313.52 794.58 766.48 678.58 766.48 678.58 438.72"/>
    <polygon class="cls-97" points="678.58 440.57 678.58 313.52 794.58 313.52 794.58 766.48 678.58 766.48 678.58 440.57"/>
    <polygon class="cls-97" points="678.58 441.74 678.58 313.52 794.58 313.52 794.58 766.48 678.58 766.48 678.58 441.74"/>
    <polygon class="cls-124" points="678.58 442.92 678.58 313.52 794.58 313.52 794.58 766.48 678.58 766.48 678.58 442.92"/>
    <polygon class="cls-124" points="678.58 444.1 678.58 313.52 794.58 313.52 794.58 766.48 678.58 766.48 678.58 444.1"/>
    <polygon class="cls-85" points="678.58 445.28 678.58 313.52 794.58 313.52 794.58 766.48 678.58 766.48 678.58 445.28"/>
    <polygon class="cls-172" points="678.58 446.45 678.58 313.52 794.58 313.52 794.58 766.48 678.58 766.48 678.58 446.45"/>
    <polygon class="cls-66" points="678.58 447.63 678.58 313.52 794.58 313.52 794.58 766.48 678.58 766.48 678.58 447.63"/>
    <polygon class="cls-141" points="678.58 448.81 678.58 313.52 794.58 313.52 794.58 766.48 678.58 766.48 678.58 448.81"/>
    <polygon class="cls-43" points="678.58 449.99 678.58 313.52 794.58 313.52 794.58 766.48 678.58 766.48 678.58 449.99"/>
    <polygon class="cls-114" points="678.58 451.16 678.58 313.52 794.58 313.52 794.58 766.48 678.58 766.48 678.58 451.16"/>
    <polygon class="cls-169" points="678.58 452.34 678.58 313.52 794.58 313.52 794.58 766.48 678.58 766.48 678.58 452.34"/>
    <polygon class="cls-203" points="678.58 453.52 678.58 313.52 794.58 313.52 794.58 766.48 678.58 766.48 678.58 453.52"/>
    <polygon class="cls-39" points="678.58 454.7 678.58 313.52 794.58 313.52 794.58 766.48 678.58 766.48 678.58 454.7"/>
    <polygon class="cls-116" points="678.58 455.87 678.58 313.52 794.58 313.52 794.58 766.48 678.58 766.48 678.58 455.87"/>
    <polygon class="cls-110" points="678.58 457.05 678.58 313.52 794.58 313.52 794.58 766.48 678.58 766.48 678.58 457.05"/>
    <polygon class="cls-139" points="678.58 458.23 678.58 313.52 794.58 313.52 794.58 766.48 678.58 766.48 678.58 458.23"/>
    <polygon class="cls-41" points="678.58 459.41 678.58 313.52 794.58 313.52 794.58 766.48 678.58 766.48 678.58 459.41"/>
    <polygon class="cls-41" points="678.58 460.58 678.58 313.52 794.58 313.52 794.58 766.48 678.58 766.48 678.58 460.58"/>
    <polygon class="cls-91" points="678.58 461.76 678.58 313.52 794.58 313.52 794.58 766.48 678.58 766.48 678.58 461.76"/>
    <polygon class="cls-42" points="678.58 462.94 678.58 313.52 794.58 313.52 794.58 766.48 678.58 766.48 678.58 462.94"/>
    <polygon class="cls-54" points="678.58 464.12 678.58 313.52 794.58 313.52 794.58 766.48 678.58 766.48 678.58 464.12"/>
    <polygon class="cls-40" points="678.58 465.29 678.58 313.52 794.58 313.52 794.58 766.48 678.58 766.48 678.58 465.29"/>
    <polygon class="cls-193" points="678.58 466.47 678.58 313.52 794.58 313.52 794.58 766.48 678.58 766.48 678.58 466.47"/>
    <polygon class="cls-165" points="678.58 467.65 678.58 313.52 794.58 313.52 794.58 766.48 678.58 766.48 678.58 467.65"/>
    <polygon class="cls-171" points="678.58 468.83 678.58 313.52 794.58 313.52 794.58 766.48 678.58 766.48 678.58 468.83"/>
    <polygon class="cls-176" points="678.58 470 678.58 313.52 794.58 313.52 794.58 766.48 678.58 766.48 678.58 470"/>
    <polygon class="cls-175" points="678.58 471.18 678.58 313.52 794.58 313.52 794.58 766.48 678.58 766.48 678.58 471.18"/>
    <polygon class="cls-126" points="678.58 472.36 678.58 313.52 794.58 313.52 794.58 766.48 678.58 766.48 678.58 472.36"/>
    <polygon class="cls-173" points="678.58 473.54 678.58 313.52 794.58 313.52 794.58 766.48 678.58 766.48 678.58 473.54"/>
    <polygon class="cls-152" points="678.58 474.71 678.58 313.52 794.58 313.52 794.58 766.48 678.58 766.48 678.58 474.71"/>
    <polygon class="cls-107" points="678.58 475.89 678.58 313.52 794.58 313.52 794.58 766.48 678.58 766.48 678.58 475.89"/>
    <polygon class="cls-96" points="678.58 477.07 678.58 313.52 794.58 313.52 794.58 766.48 678.58 766.48 678.58 477.07"/>
    <polygon class="cls-70" points="678.58 478.25 678.58 313.52 794.58 313.52 794.58 766.48 678.58 766.48 678.58 478.25"/>
    <polygon class="cls-135" points="678.58 479.42 678.58 313.52 794.58 313.52 794.58 766.48 678.58 766.48 678.58 479.42"/>
    <polygon class="cls-109" points="678.58 480.6 678.58 313.52 794.58 313.52 794.58 766.48 678.58 766.48 678.58 480.6"/>
    <polygon class="cls-185" points="678.58 481.78 678.58 315.91 678.58 313.52 794.58 313.52 794.58 766.48 678.58 766.48 678.58 481.78"/>
    <polygon class="cls-25" points="678.58 482.96 678.58 318.42 678.58 313.52 794.58 313.52 794.58 766.48 678.58 766.48 678.58 482.96"/>
    <polygon class="cls-29" points="678.58 484.13 678.58 320.93 678.58 313.52 794.58 313.52 794.58 766.48 678.58 766.48 678.58 484.13"/>
    <polygon class="cls-184" points="678.58 485.31 678.58 323.45 678.58 313.52 794.58 313.52 794.58 766.48 678.58 766.48 678.58 485.31"/>
    <polygon class="cls-158" points="678.58 486.49 678.58 325.96 678.58 313.52 794.58 313.52 794.58 766.48 678.58 766.48 678.58 486.49"/>
    <polygon class="cls-33" points="678.58 487.67 678.58 328.48 678.58 313.52 794.58 313.52 794.58 766.48 678.58 766.48 678.58 487.67"/>
    <polygon class="cls-181" points="678.58 488.84 678.58 330.99 678.58 313.52 794.58 313.52 794.58 766.48 678.58 766.48 678.58 488.84"/>
    <polygon class="cls-162" points="678.58 490.02 678.58 333.5 678.58 313.52 794.58 313.52 794.58 766.48 678.58 766.48 678.58 490.02"/>
    <polygon class="cls-30" points="678.58 491.2 678.58 336.02 678.58 313.52 794.58 313.52 794.58 766.48 678.58 766.48 678.58 491.2"/>
    <polygon class="cls-94" points="678.58 492.38 678.58 338.53 678.58 313.52 794.58 313.52 794.58 766.48 678.58 766.48 678.58 492.38"/>
    <polygon class="cls-90" points="678.58 493.55 678.58 341.05 678.58 313.52 794.58 313.52 794.58 766.48 678.58 766.48 678.58 493.55"/>
    <polygon class="cls-129" points="678.58 494.73 678.58 343.56 678.58 313.52 794.58 313.52 794.58 766.48 678.58 766.48 678.58 494.73"/>
    <polygon class="cls-186" points="678.58 495.91 678.58 346.07 678.58 313.52 794.58 313.52 794.58 766.48 678.58 766.48 678.58 495.91"/>
    <polygon class="cls-167" points="678.58 497.09 678.58 348.59 678.58 313.52 794.58 313.52 794.58 766.48 678.58 766.48 678.58 497.09"/>
    <polygon class="cls-31" points="678.58 498.26 678.58 351.1 678.58 313.52 794.58 313.52 794.58 766.48 678.58 766.48 678.58 498.26"/>
    <polygon class="cls-79" points="678.58 499.44 678.58 353.61 678.58 313.52 794.58 313.52 794.58 766.48 678.58 766.48 678.58 499.44"/>
    <path class="cls-187" d="m678.58,500.62v-173.83h-15.72c9.1-9.29,18.59-18.08,28.44-26.35v13.07h103.27v452.96h-115.99v-265.86Z"/>
    <path class="cls-103" d="m678.58,501.8v-172.22h-13.22c9.01-9.2,18.42-17.91,28.18-26.1v10.05h101.04v452.96h-115.99v-264.68Z"/>
    <path class="cls-88" d="m678.58,502.97v-170.61h-10.73c8.93-9.12,18.25-17.74,27.91-25.86v7.02h98.81v452.96h-115.99v-263.51Z"/>
    <path class="cls-143" d="m678.58,504.15v-169h-8.23c8.85-9.03,18.08-17.58,27.65-25.62v3.99h96.57v452.96h-115.99v-262.33Z"/>
    <path class="cls-151" d="m678.58,505.33v-167.39h-5.73c8.76-8.94,17.9-17.41,27.39-25.37v.96h94.34v452.96h-115.99v-261.15Z"/>
    <path class="cls-73" d="m678.58,506.51v-165.79h-3.24c8.68-8.86,17.73-17.24,27.13-25.13,4.7-3.94,9.48-7.76,14.34-11.46v9.39h77.77v452.96h-115.99v-259.97Z"/>
    <path class="cls-150" d="m678.58,507.68v-164.18h-.74c8.59-8.77,17.56-17.08,26.86-24.89,9.3-7.81,18.94-15.13,28.87-21.94v16.84h61v452.96h-115.99v-258.8Z"/>
    <path class="cls-142" d="m678.58,508.86v-149.19h-10.72c4.06-4.57,8.23-9.03,12.48-13.38,8.51-8.69,17.39-16.91,26.6-24.64,9.21-7.73,18.75-14.98,28.59-21.72v13.6h59.05v452.96h-115.99v-257.62Z"/>
    <path class="cls-28" d="m678.58,510.04v-147.72h-8.1c4.02-4.53,8.15-8.94,12.36-13.24,8.43-8.6,17.22-16.74,26.34-24.4,9.12-7.66,18.57-14.83,28.31-21.51v10.35h57.1v452.96h-115.99v-256.44Z"/>
    <path class="cls-86" d="m678.58,511.22v-132.46h-17.15c15.16-18.81,31.91-35.88,49.97-51.05,9.03-7.58,18.38-14.69,28.02-21.29v7.11h55.15v452.96h-115.99v-255.26Z"/>
    <path class="cls-132" d="m678.58,512.39v-131.13h-14.41c15-18.62,31.59-35.52,49.47-50.53,8.94-7.51,18.2-14.54,27.74-21.08v3.86h53.2v452.96h-115.99v-254.09Z"/>
    <path class="cls-102" d="m678.58,513.57v-129.79h-11.67c14.85-18.43,31.27-35.16,48.96-50.02,8.85-7.43,18.01-14.39,27.46-20.86v.62h51.24v452.96h-115.99v-252.91Z"/>
    <path class="cls-177" d="m678.58,514.75v-128.45h-8.93c29.39-36.49,65-66.22,104.48-87.9v15.13h20.45v452.96h-115.99v-251.73Z"/>
    <path class="cls-56" d="m678.58,515.93v-127.12h-6.19c29.09-36.11,64.32-65.53,103.39-86.99v11.7h18.8v452.96h-115.99v-250.55Z"/>
    <path class="cls-168" d="m678.58,517.1v-125.78h-3.46c28.78-35.73,63.65-64.84,102.31-86.08v8.27h17.15v452.96h-115.99v-249.38Z"/>
    <path class="cls-21" d="m678.58,518.28v-124.44h-.72c28.48-35.35,62.97-64.15,101.22-85.16v4.84h15.5v452.96h-115.99v-248.2Z"/>
    <path class="cls-34" d="m678.58,519.46v-109.69h-8.26c3.33-4.57,6.76-9.04,10.28-13.41,28.17-34.97,62.3-63.46,100.13-84.25v1.42h13.84v452.96h-115.99v-247.02Z"/>
    <path class="cls-163" d="m678.58,520.64v-94.65h-15c6.2-9.43,12.79-18.48,19.76-27.12,27.87-34.59,61.62-62.77,99.05-83.33,9.36-5.14,18.94-9.8,28.72-13.97l-16.53,11.96v452.96h-115.99v-245.84Z"/>
    <path class="cls-160" d="m678.58,521.81v-93.61h-12.05c6.13-9.33,12.65-18.27,19.54-26.83,27.56-34.21,60.94-62.08,97.96-82.42,4.63-2.54,9.31-4.97,14.05-7.27l-3.5,1.83v452.96h-115.99v-244.67Z"/>
    <path class="cls-67" d="m678.58,522.99v-92.57h-9.09c6.06-9.22,12.51-18.07,19.33-26.53,27.25-33.83,60.27-61.4,96.87-81.5,4.58-2.51,9.21-4.91,13.89-7.19h-5v451.28h-115.99v-243.49Z"/>
    <path class="cls-199" d="m678.58,524.17v-91.53h-6.14c5.99-9.12,12.37-17.87,19.11-26.23,26.95-33.45,59.59-60.71,95.78-80.59,4.52-2.49,9.1-4.86,13.73-7.11h-6.49v447.77h-115.99v-242.31Z"/>
    <path class="cls-117" d="m678.58,525.35v-90.49h-3.19c5.92-9.02,12.23-17.67,18.89-25.93,26.64-33.07,58.91-60.02,94.7-79.67,4.47-2.46,9-4.8,13.58-7.03h-7.99v444.26h-115.99v-241.13Z"/>
    <path class="cls-155" d="m678.58,526.52v-61.65h-16.62c10.12-19.23,21.9-37.09,35.07-53.44,26.34-32.69,58.24-59.33,93.61-78.76,4.42-2.43,8.9-4.74,13.42-6.95h-9.48v440.75h-115.99v-239.96Z"/>
    <path class="cls-55" d="m678.58,527.7v-60.94h-13.48c10.01-19.01,21.65-36.66,34.66-52.81,26.03-32.31,57.56-58.64,92.52-77.84,4.37-2.4,8.79-4.69,13.27-6.87h-10.98v437.24h-115.99v-238.78Z"/>
    <path class="cls-65" d="m678.58,528.88v-60.22h-10.33c9.89-18.78,21.39-36.23,34.25-52.19,25.72-31.93,56.89-57.95,91.44-76.93,4.32-2.37,8.69-4.63,13.11-6.78h-12.47v433.73h-115.99v-237.6Z"/>
    <path class="cls-36" d="m678.58,530.06v-59.51h-7.19c9.77-18.56,21.14-35.8,33.85-51.57,25.42-31.55,56.21-57.26,90.35-76.02h-1.01v423.52h-115.99v-236.42Z"/>
    <path class="cls-18" d="m678.58,531.23v-58.79h-4.04c9.65-18.34,20.88-35.37,33.44-50.95,25.11-31.17,55.53-56.57,89.26-75.1h-2.66v420.09h-115.99v-235.25Z"/>
    <path class="cls-59" d="m678.58,532.41v-58.07h-.9c9.54-18.11,20.63-34.94,33.03-50.33,24.81-30.79,54.86-55.88,88.18-74.19h-4.31v416.66h-115.99v-234.07Z"/>
    <path class="cls-164" d="m678.58,533.59v-29.59h-10.7c3.91-9.57,8.23-18.83,12.94-27.77,9.42-17.89,20.37-34.51,32.62-49.71,24.5-30.41,54.18-55.2,87.09-73.27h-5.96v413.23h-115.99v-232.89Z"/>
    <path class="cls-77" d="m678.58,534.77v-29.22h-7.39c3.86-9.45,8.13-18.59,12.78-27.43,9.3-17.67,20.12-34.07,32.22-49.09,24.2-30.03,53.5-54.51,86-72.36h-7.62v409.81h-115.74v.95c-4.18-8.68-7.97-17.57-11.36-26.64h11.1v-206.03Z"/>
    <path class="cls-189" d="m664.31,535.94c23.78-79.19,75.36-140.59,139.54-175.84h-9.27v406.38h-106.05v11.88c-2.25-4.17-4.41-8.41-6.47-12.69-8.25-17.14-14.97-35.11-20.04-53.67h16.57v-176.05h-14.27Z"/>
    <path class="cls-89" d="m667.74,537.12c23.48-78.18,74.4-138.79,137.75-173.59h-10.92v402.95h-102.93v9.95c-2.22-4.12-4.35-8.3-6.39-12.53-8.15-16.92-14.78-34.66-19.78-52.99h13.11v-173.8h-10.84Z"/>
    <path class="cls-93" d="m671.18,538.3c23.17-77.16,73.43-136.99,135.96-171.34h-12.57v399.52h-99.8v8.03c-2.19-4.07-4.3-8.19-6.31-12.37-8.04-16.7-14.59-34.21-19.53-52.3h9.64v-171.54h-7.4Z"/>
    <path class="cls-37" d="m674.62,539.48c22.87-76.15,72.47-135.19,134.18-169.09h-14.22v396.09h-89.91v17.98c-4.69-7.8-9.02-15.84-12.99-24.08-15.87-32.96-25.85-69.14-29.01-106.61h15.91v-114.29h-3.96Z"/>
    <path class="cls-13" d="m678.06,540.65c22.56-75.14,71.5-133.39,132.39-166.84h-15.87v392.66h-86.87v15.9c-4.63-7.7-8.9-15.63-12.82-23.76-15.66-32.52-25.51-68.22-28.62-105.19h12.31v-112.77h-.53Z"/>
    <path class="cls-68" d="m681.49,541.83c11.13-37.06,28.76-69.96,51.13-97.72,11.18-13.88,23.54-26.47,36.86-37.66,6.66-5.59,13.56-10.83,20.67-15.71,3.56-2.44,7.17-4.78,10.82-7.03h-6.4v382.76h-83.83v13.81c-4.56-7.6-8.78-15.42-12.64-23.44-15.45-32.08-25.16-67.3-28.24-103.77-3.07-36.47.5-74.19,11.63-111.25Z"/>
    <path class="cls-11" d="m684.93,543.01c10.98-36.55,28.37-69,50.43-96.38,11.03-13.69,23.22-26.11,36.36-37.14,6.57-5.52,13.38-10.69,20.39-15.49,3.51-2.4,7.07-4.72,10.68-6.94h-8.2v379.42h-80.8v11.73c-4.5-7.49-8.66-15.21-12.47-23.12-30.47-63.28-38.34-138.97-16.38-212.08Z"/>
    <path class="cls-27" d="m688.37,544.19c10.83-36.05,27.98-68.05,49.73-95.04,10.87-13.5,22.9-25.75,35.85-36.63,6.48-5.44,13.19-10.54,20.11-15.28,3.46-2.37,6.97-4.65,10.53-6.84h-10.01v376.08h-77.76v9.65c-4.44-7.39-8.54-15-12.3-22.8-30.05-62.4-37.8-137.05-16.15-209.14Z"/>
    <path class="cls-125" d="m691.8,545.36c10.67-35.54,27.58-67.09,49.03-93.71,10.72-13.31,22.58-25.39,35.35-36.11,6.39-5.36,13-10.39,19.82-15.06h-1.43v366h-74.72v7.56c-4.38-7.28-8.42-14.79-12.13-22.48-29.62-61.52-37.27-135.12-15.93-206.2Z"/>
    <path class="cls-111" d="m695.24,546.54c10.52-35.03,27.19-66.13,48.33-92.37,10.57-13.12,22.25-25.02,34.85-35.6,6.3-5.29,12.82-10.24,19.54-14.85h-3.38v362.76h-71.69v5.48c-4.31-7.18-8.3-14.58-11.95-22.16-29.2-60.65-36.74-133.19-15.7-203.26Z"/>
    <path class="cls-128" d="m698.68,547.72c10.37-34.53,26.8-65.18,47.63-91.03,10.42-12.93,21.93-24.66,34.34-35.08,6.2-5.21,12.63-10.09,19.26-14.63h-5.33v359.51h-68.65v3.39c-4.25-7.08-8.18-14.36-11.78-21.84-28.78-59.77-36.21-131.26-15.47-200.32Z"/>
    <path class="cls-23" d="m702.11,548.9c10.22-34.02,26.4-64.22,46.93-89.7,10.26-12.74,21.61-24.3,33.84-34.57,6.11-5.13,12.45-9.94,18.98-14.42h-7.28v356.27h-65.61v1.31c-4.19-6.97-8.06-14.15-11.61-21.52-28.36-58.89-35.68-129.34-15.25-197.38Z"/>
    <path class="cls-133" d="m705.55,550.07c10.06-33.51,26.01-63.26,46.23-88.36,10.11-12.55,21.29-23.94,33.33-34.05,6.02-5.06,12.26-9.8,18.69-14.2h-9.23v353.02h-56.15v9.37c-2.22-3.33-4.36-6.71-6.42-10.15-4.13-6.87-7.94-13.94-11.43-21.19-27.93-58.01-35.15-127.41-15.02-194.44Z"/>
    <path class="cls-98" d="m708.99,551.25c9.91-33.01,25.62-62.31,45.53-87.03,9.96-12.36,20.97-23.58,32.83-33.54,5.93-4.98,12.08-9.65,18.41-13.99h-11.18v349.78h-46.44v16.81c-9.33-12.67-17.48-26.25-24.36-40.54-27.51-57.14-34.61-125.48-14.79-191.5Z"/>
    <path class="cls-188" d="m712.42,552.43c9.76-32.5,25.22-61.35,44.83-85.69,9.8-12.17,20.64-23.21,32.33-33.02,5.84-4.9,11.89-9.5,18.13-13.77h-13.13v346.54h-43.61v14.42c-9.18-12.48-17.21-25.85-23.98-39.92-27.09-56.26-34.08-123.56-14.56-188.56Z"/>
    <path class="cls-197" d="m715.86,553.61c9.61-31.99,24.83-60.39,44.13-84.35,9.65-11.98,20.32-22.85,31.82-32.51,5.75-4.83,11.71-9.35,17.85-13.56h-15.08v343.29h-40.77v12.04c-9.04-12.28-16.94-25.45-23.61-39.29-26.67-55.38-33.55-121.63-14.34-185.62Z"/>
    <path class="cls-15" d="m719.3,554.78c9.46-31.49,24.44-59.44,43.43-83.02,9.5-11.79,20-22.49,31.32-31.99,5.66-4.75,11.52-9.2,17.56-13.34h-17.04v340.05h-37.93v9.65c-8.9-12.09-16.67-25.05-23.24-38.67-26.24-54.5-33.02-119.7-14.11-182.67Z"/>
    <path class="cls-61" d="m722.74,555.96c9.3-30.98,24.04-58.48,42.74-81.68,9.35-11.6,19.68-22.13,30.81-31.48h-1.71v323.68h-35.1v7.26c-8.75-11.89-16.41-24.64-22.86-38.05-25.82-53.63-32.49-117.78-13.88-179.73Z"/>
    <path class="cls-84" d="m726.17,557.14c9.15-30.47,23.65-57.52,42.04-80.34,9.19-11.41,19.36-21.77,30.31-30.96h-3.94v320.65h-32.26v4.88c-8.61-11.7-16.14-24.24-22.49-37.43-25.4-52.75-31.96-115.85-13.66-176.79Z"/>
    <path class="cls-194" d="m729.61,558.32c9-29.97,23.26-56.56,41.34-79.01,9.04-11.22,19.03-21.4,29.8-30.45h-6.17v317.62h-29.43v2.49c-8.47-11.5-15.87-23.84-22.11-36.8-24.98-51.87-31.43-113.92-13.43-173.85Z"/>
    <path class="cls-159" d="m733.05,559.49c8.85-29.46,22.86-55.61,40.64-77.67,8.89-11.03,18.71-21.04,29.3-29.93h-8.41v314.59h-26.59v.11c-8.32-11.31-15.6-23.43-21.74-36.18-24.55-50.99-30.89-111.99-13.2-170.91Z"/>
    <path class="cls-95" d="m736.48,560.67c8.69-28.95,22.47-54.65,39.94-76.33,8.73-10.84,18.39-20.68,28.8-29.42h-10.64v311.56h-10.72v13.77c-4.59-5.13-8.94-10.49-13.03-16.05-8.18-11.11-15.33-23.03-21.37-35.56-24.13-50.12-30.36-110.07-12.97-167.97Z"/>
    <path class="cls-75" d="m739.92,561.85c8.54-28.45,22.08-53.69,39.24-75,8.58-10.65,18.07-20.32,28.29-28.9h-12.87v308.53h-8.12v11.1c-4.51-5.04-8.79-10.31-12.8-15.77-8.04-10.92-15.06-22.63-20.99-34.94-23.71-49.24-29.83-108.14-12.75-165.03Z"/>
    <path class="cls-87" d="m743.36,563.03c8.39-27.94,21.68-52.74,38.54-73.66,8.43-10.46,17.75-19.96,27.79-28.39h-15.11v305.5h-5.51v8.44c-4.43-4.95-8.63-10.12-12.58-15.49-7.89-10.73-14.8-22.22-20.62-34.31-23.29-48.36-29.3-106.21-12.52-162.09Z"/>
    <path class="cls-123" d="m746.79,564.2c8.24-27.43,21.29-51.78,37.84-72.33,4.14-5.14,8.49-10.03,13.05-14.68h-3.11v289.28h-2.9v5.77c-4.35-4.86-8.47-9.94-12.35-15.21-7.75-10.53-14.53-21.82-20.24-33.69-22.86-47.49-28.77-104.29-12.29-159.15Z"/>
    <path class="cls-198" d="m750.23,565.38c8.09-26.92,20.9-50.82,37.14-70.99,4.06-5.04,8.34-9.85,12.81-14.41h-5.6v286.5l13.2,16.78c-18.88-17.35-34.26-38.37-45.48-61.67-22.44-46.61-28.24-102.36-12.07-156.21Z"/>
    <path class="cls-145" d="m753.67,566.56c7.93-26.42,20.5-49.87,36.44-69.65,3.98-4.95,8.18-9.66,12.57-14.14h-8.1v283.71l15.55,13.86c-18.52-17.02-33.62-37.65-44.63-60.51-22.02-45.73-27.7-100.43-11.84-153.27Z"/>
    <path class="cls-49" d="m757.1,567.74c7.78-25.91,20.11-48.91,35.74-68.32,3.91-4.85,8.02-9.48,12.32-13.87h-10.6v278.7h4.92c-4.11-4.59-8-9.39-11.66-14.36-7.32-9.95-13.72-20.61-19.12-31.82-21.6-44.85-27.17-98.51-11.61-150.33Z"/>
    <path class="cls-183" d="m760.54,568.91c7.63-25.4,19.72-47.95,35.04-66.98h-1.01v259.65h7.53c-4.03-4.5-7.85-9.21-11.44-14.08-7.18-9.75-13.45-20.21-18.75-31.2-21.17-43.98-26.64-96.58-11.38-147.39Z"/>
    <path class="cls-134" d="m763.98,570.09c7.48-24.9,19.32-47,34.34-65.64h-3.75v254.47h10.14c-3.95-4.42-7.69-9.02-11.21-13.8-7.04-9.56-13.19-19.8-18.37-30.58-20.75-43.1-26.11-94.65-11.16-144.45Z"/>
    <path class="cls-105" d="m767.42,571.27c7.32-24.39,18.93-46.04,33.65-64.31h-6.48v235.77h1.77c-6.89-9.36-12.92-19.4-18-29.96-20.33-42.22-25.58-92.73-10.93-141.51Z"/>
    <path class="cls-16" d="m770.85,572.45c7.17-23.88,18.54-45.08,32.95-62.97h-9.22v230.87h4.6c-6.75-9.17-12.65-19-17.62-29.33-19.91-41.34-25.05-90.8-10.7-138.56Z"/>
    <path class="cls-127" d="m774.29,573.62c7.02-23.38,18.14-44.13,32.25-61.63h-11.96v225.97h7.44c-6.61-8.97-12.38-18.59-17.25-28.71-19.48-40.47-24.52-88.87-10.48-135.62Z"/>
    <path class="cls-192" d="m777.73,574.8c6.87-22.87,17.75-43.17,31.55-60.3h-14.7v221.07h10.27c-6.46-8.78-12.11-18.19-16.88-28.09-19.06-39.59-23.98-86.94-10.25-132.68Z"/>
    <path class="cls-71" d="m781.16,575.98c3.36-11.18,7.7-21.73,12.88-31.59,2.59-4.93,5.4-9.68,8.4-14.24h-7.87v203.04h13.11c-6.32-8.59-11.84-17.79-16.5-27.47-18.64-38.71-23.45-85.02-10.02-129.74Z"/>
    <path class="cls-26" d="m784.6,577.16c3.28-10.93,7.52-21.24,12.59-30.87h-2.61v184.52h15.95c-6.18-8.39-11.57-17.39-16.13-26.84-18.22-37.83-22.92-83.09-9.79-126.8Z"/>
    <path class="cls-26" d="m788.04,578.33c3.21-10.67,7.35-20.75,12.3-30.15h-5.76v154.02h3.03c-17.79-36.96-22.39-81.16-9.57-123.86Z"/>
    <path class="cls-200" d="m791.57,579.54c3.13-10.41,7.17-20.24,12-29.42h-8.99v150.26h6.32c-17.36-36.06-21.84-79.18-9.33-120.84Z"/>
    <path class="cls-50" d="m794.58,580.75v-99.9,217.72h9.62c-16.93-35.15-21.3-77.2-9.1-117.82h-.52Z"/>
    <path class="cls-112" d="m794.58,581.96v-97.34,212.14h12.92c-16.49-34.25-20.75-75.22-8.87-114.8h-4.05Z"/>
    <path class="cls-24" d="m794.58,583.17v-94.78,206.56h16.22c-16.06-33.35-20.2-73.25-8.63-111.78h-7.58Z"/>
  </g>
  <g class="cls-1">
    <rect class="cls-204" x="875.16" y="372.97" width="111.08" height="334.06"/>
    <rect class="cls-204" x="872.71" y="370.35" width="115.99" height="339.3"/>
    <rect class="cls-45" x="872.71" y="370.35" width="115.99" height="339.3"/>
    <rect class="cls-201" x="872.71" y="370.35" width="115.99" height="339.3"/>
    <rect class="cls-74" x="872.71" y="370.35" width="115.99" height="339.3"/>
    <rect class="cls-106" x="872.71" y="370.35" width="115.99" height="339.3"/>
    <rect class="cls-47" x="872.71" y="370.35" width="115.99" height="339.3"/>
    <rect class="cls-137" x="872.71" y="370.35" width="115.99" height="339.3"/>
    <rect class="cls-69" x="872.71" y="370.35" width="115.99" height="339.3"/>
    <rect class="cls-131" x="872.71" y="370.35" width="115.99" height="339.3"/>
    <polygon class="cls-113" points="872.71 370.39 872.71 370.35 988.7 370.35 988.7 709.65 872.71 709.65 872.71 370.39"/>
    <polygon class="cls-157" points="872.71 372.24 872.71 370.35 988.7 370.35 988.7 709.65 872.71 709.65 872.71 372.24"/>
    <polygon class="cls-180" points="872.71 374.09 872.71 370.35 988.7 370.35 988.7 709.65 872.71 709.65 872.71 374.09"/>
    <polygon class="cls-144" points="872.71 375.93 872.71 370.35 988.7 370.35 988.7 709.65 872.71 709.65 872.71 375.93"/>
    <polygon class="cls-202" points="872.71 377.78 872.71 370.35 988.7 370.35 988.7 709.65 872.71 709.65 872.71 377.78"/>
    <polygon class="cls-130" points="872.71 379.63 872.71 370.35 988.7 370.35 988.7 709.65 872.71 709.65 872.71 379.63"/>
    <polygon class="cls-63" points="872.71 381.47 872.71 370.35 988.7 370.35 988.7 709.65 872.71 709.65 872.71 381.47"/>
    <polygon class="cls-19" points="872.71 383.32 872.71 370.35 988.7 370.35 988.7 709.65 872.71 709.65 872.71 383.32"/>
    <polygon class="cls-174" points="872.71 385.17 872.71 370.35 988.7 370.35 988.7 709.65 872.71 709.65 872.71 385.17"/>
    <polygon class="cls-148" points="872.71 387.01 872.71 370.35 988.7 370.35 988.7 709.65 872.71 709.65 872.71 387.01"/>
    <polygon class="cls-99" points="872.71 388.86 872.71 370.35 988.7 370.35 988.7 709.65 872.71 709.65 872.71 388.86"/>
    <polygon class="cls-32" points="872.71 390.71 872.71 370.35 988.7 370.35 988.7 709.65 872.71 709.65 872.71 390.71"/>
    <polygon class="cls-100" points="872.71 392.55 872.71 370.35 988.7 370.35 988.7 709.65 872.71 709.65 872.71 392.55"/>
    <polygon class="cls-161" points="872.71 394.4 872.71 370.35 988.7 370.35 988.7 709.65 872.71 709.65 872.71 394.4"/>
    <polygon class="cls-76" points="872.71 396.25 872.71 370.35 988.7 370.35 988.7 709.65 872.71 709.65 872.71 396.25"/>
    <polygon class="cls-8" points="872.71 398.09 872.71 370.35 988.7 370.35 988.7 709.65 872.71 709.65 872.71 398.09"/>
    <polygon class="cls-146" points="872.71 399.94 872.71 370.35 988.7 370.35 988.7 709.65 872.71 709.65 872.71 399.94"/>
    <polygon class="cls-206" points="872.71 401.79 872.71 370.35 988.7 370.35 988.7 709.65 872.71 709.65 872.71 401.79"/>
    <polygon class="cls-119" points="872.71 403.63 872.71 370.35 988.7 370.35 988.7 709.65 872.71 709.65 872.71 403.63"/>
    <polygon class="cls-12" points="872.71 405.48 872.71 370.35 988.7 370.35 988.7 709.65 872.71 709.65 872.71 405.48"/>
    <polygon class="cls-62" points="872.71 407.33 872.71 370.35 988.7 370.35 988.7 709.65 872.71 709.65 872.71 407.33"/>
    <polygon class="cls-115" points="872.71 409.17 872.71 370.35 988.7 370.35 988.7 709.65 872.71 709.65 872.71 409.17"/>
    <polygon class="cls-78" points="872.71 411.02 872.71 370.35 988.7 370.35 988.7 709.65 872.71 709.65 872.71 411.02"/>
    <polygon class="cls-48" points="872.71 412.87 872.71 370.35 988.7 370.35 988.7 709.65 872.71 709.65 872.71 412.87"/>
    <polygon class="cls-82" points="872.71 414.71 872.71 370.35 988.7 370.35 988.7 709.65 872.71 709.65 872.71 414.71"/>
    <polygon class="cls-20" points="872.71 416.56 872.71 370.35 988.7 370.35 988.7 709.65 872.71 709.65 872.71 416.56"/>
    <polygon class="cls-149" points="872.71 418.41 872.71 370.35 988.7 370.35 988.7 709.65 872.71 709.65 872.71 418.41"/>
    <polygon class="cls-195" points="872.71 420.25 872.71 370.35 988.7 370.35 988.7 709.65 872.71 709.65 872.71 420.25"/>
    <polygon class="cls-81" points="872.71 422.1 872.71 370.35 988.7 370.35 988.7 709.65 872.71 709.65 872.71 422.1"/>
    <polygon class="cls-190" points="872.71 423.95 872.71 370.35 988.7 370.35 988.7 709.65 872.71 709.65 872.71 423.95"/>
    <polygon class="cls-22" points="872.71 425.79 872.71 370.35 988.7 370.35 988.7 709.65 872.71 709.65 872.71 425.79"/>
    <polygon class="cls-140" points="872.71 427.64 872.71 370.35 988.7 370.35 988.7 709.65 872.71 709.65 872.71 427.64"/>
    <polygon class="cls-57" points="872.71 429.49 872.71 370.35 988.7 370.35 988.7 709.65 872.71 709.65 872.71 429.49"/>
    <polygon class="cls-153" points="872.71 431.33 872.71 370.35 988.7 370.35 988.7 709.65 872.71 709.65 872.71 431.33"/>
    <polygon class="cls-64" points="872.71 433.18 872.71 370.35 988.7 370.35 988.7 709.65 872.71 709.65 872.71 433.18"/>
    <polygon class="cls-101" points="872.71 435.03 872.71 370.35 988.7 370.35 988.7 709.65 872.71 709.65 872.71 435.03"/>
    <polygon class="cls-178" points="872.71 436.87 872.71 370.35 988.7 370.35 988.7 709.65 872.71 709.65 872.71 436.87"/>
    <polygon class="cls-97" points="872.71 438.72 872.71 370.35 988.7 370.35 988.7 709.65 872.71 709.65 872.71 438.72"/>
    <polygon class="cls-97" points="872.71 440.57 872.71 370.35 988.7 370.35 988.7 709.65 872.71 709.65 872.71 440.57"/>
    <polygon class="cls-97" points="872.71 441.74 872.71 370.35 988.7 370.35 988.7 709.65 872.71 709.65 872.71 441.74"/>
    <polygon class="cls-124" points="872.71 442.92 872.71 370.35 988.7 370.35 988.7 709.65 872.71 709.65 872.71 442.92"/>
    <polygon class="cls-124" points="872.71 444.1 872.71 370.35 988.7 370.35 988.7 709.65 872.71 709.65 872.71 444.1"/>
    <polygon class="cls-85" points="872.71 445.28 872.71 370.35 988.7 370.35 988.7 709.65 872.71 709.65 872.71 445.28"/>
    <polygon class="cls-172" points="872.71 446.45 872.71 370.35 988.7 370.35 988.7 709.65 872.71 709.65 872.71 446.45"/>
    <polygon class="cls-66" points="872.71 447.63 872.71 370.35 988.7 370.35 988.7 709.65 872.71 709.65 872.71 447.63"/>
    <polygon class="cls-141" points="872.71 448.81 872.71 370.35 988.7 370.35 988.7 709.65 872.71 709.65 872.71 448.81"/>
    <polygon class="cls-43" points="872.71 449.99 872.71 370.35 988.7 370.35 988.7 709.65 872.71 709.65 872.71 449.99"/>
    <polygon class="cls-114" points="872.71 451.16 872.71 370.35 988.7 370.35 988.7 709.65 872.71 709.65 872.71 451.16"/>
    <polygon class="cls-169" points="872.71 452.34 872.71 370.35 988.7 370.35 988.7 709.65 872.71 709.65 872.71 452.34"/>
    <polygon class="cls-203" points="872.71 453.52 872.71 370.35 988.7 370.35 988.7 709.65 872.71 709.65 872.71 453.52"/>
    <polygon class="cls-39" points="872.71 454.7 872.71 370.35 988.7 370.35 988.7 709.65 872.71 709.65 872.71 454.7"/>
    <polygon class="cls-116" points="872.71 455.87 872.71 370.35 988.7 370.35 988.7 709.65 872.71 709.65 872.71 455.87"/>
    <polygon class="cls-110" points="872.71 457.05 872.71 370.35 988.7 370.35 988.7 709.65 872.71 709.65 872.71 457.05"/>
    <polygon class="cls-139" points="872.71 458.23 872.71 370.35 988.7 370.35 988.7 709.65 872.71 709.65 872.71 458.23"/>
    <polygon class="cls-41" points="872.71 459.41 872.71 370.35 988.7 370.35 988.7 709.65 872.71 709.65 872.71 459.41"/>
    <polygon class="cls-41" points="872.71 460.58 872.71 370.35 988.7 370.35 988.7 709.65 872.71 709.65 872.71 460.58"/>
    <polygon class="cls-91" points="872.71 461.76 872.71 370.35 988.7 370.35 988.7 709.65 872.71 709.65 872.71 461.76"/>
    <polygon class="cls-42" points="872.71 462.94 872.71 370.35 988.7 370.35 988.7 709.65 872.71 709.65 872.71 462.94"/>
    <polygon class="cls-54" points="872.71 464.12 872.71 370.35 988.7 370.35 988.7 709.65 872.71 709.65 872.71 464.12"/>
    <polygon class="cls-40" points="872.71 465.29 872.71 370.35 988.7 370.35 988.7 709.65 872.71 709.65 872.71 465.29"/>
    <polygon class="cls-193" points="872.71 466.47 872.71 370.35 988.7 370.35 988.7 709.65 872.71 709.65 872.71 466.47"/>
    <polygon class="cls-165" points="872.71 467.65 872.71 370.35 988.7 370.35 988.7 709.65 872.71 709.65 872.71 467.65"/>
    <polygon class="cls-171" points="872.71 468.83 872.71 370.35 988.7 370.35 988.7 709.65 872.71 709.65 872.71 468.83"/>
    <polygon class="cls-176" points="872.71 470 872.71 370.35 988.7 370.35 988.7 709.65 872.71 709.65 872.71 470"/>
    <polygon class="cls-175" points="872.71 471.18 872.71 370.35 988.7 370.35 988.7 709.65 872.71 709.65 872.71 471.18"/>
    <polygon class="cls-126" points="872.71 472.36 872.71 370.35 988.7 370.35 988.7 709.65 872.71 709.65 872.71 472.36"/>
    <polygon class="cls-173" points="872.71 473.54 872.71 370.35 988.7 370.35 988.7 709.65 872.71 709.65 872.71 473.54"/>
    <polygon class="cls-152" points="872.71 474.71 872.71 370.35 988.7 370.35 988.7 709.65 872.71 709.65 872.71 474.71"/>
    <polygon class="cls-107" points="872.71 475.89 872.71 370.35 988.7 370.35 988.7 709.65 872.71 709.65 872.71 475.89"/>
    <polygon class="cls-96" points="872.71 477.07 872.71 370.35 988.7 370.35 988.7 709.65 872.71 709.65 872.71 477.07"/>
    <polygon class="cls-70" points="872.71 478.25 872.71 370.35 988.7 370.35 988.7 709.65 872.71 709.65 872.71 478.25"/>
    <polygon class="cls-135" points="872.71 479.42 872.71 370.35 988.7 370.35 988.7 709.65 872.71 709.65 872.71 479.42"/>
    <polygon class="cls-109" points="872.71 480.6 872.71 370.35 988.7 370.35 988.7 709.65 872.71 709.65 872.71 480.6"/>
    <polygon class="cls-185" points="872.71 481.78 872.71 370.35 988.7 370.35 988.7 709.65 872.71 709.65 872.71 481.78"/>
    <polygon class="cls-25" points="872.71 482.96 872.71 370.35 988.7 370.35 988.7 709.65 872.71 709.65 872.71 482.96"/>
    <polygon class="cls-29" points="872.71 484.13 872.71 370.35 988.7 370.35 988.7 709.65 872.71 709.65 872.71 484.13"/>
    <polygon class="cls-184" points="872.71 485.31 872.71 370.35 988.7 370.35 988.7 709.65 872.71 709.65 872.71 485.31"/>
    <polygon class="cls-158" points="872.71 486.49 872.71 370.35 988.7 370.35 988.7 709.65 872.71 709.65 872.71 486.49"/>
    <polygon class="cls-33" points="872.71 487.67 872.71 370.35 988.7 370.35 988.7 709.65 872.71 709.65 872.71 487.67"/>
    <polygon class="cls-181" points="872.71 488.84 872.71 370.35 988.7 370.35 988.7 709.65 872.71 709.65 872.71 488.84"/>
    <polygon class="cls-162" points="872.71 490.02 872.71 370.35 988.7 370.35 988.7 709.65 872.71 709.65 872.71 490.02"/>
    <polygon class="cls-30" points="872.71 491.2 872.71 370.35 988.7 370.35 988.7 709.65 872.71 709.65 872.71 491.2"/>
    <polygon class="cls-94" points="872.71 492.38 872.71 370.35 988.7 370.35 988.7 709.65 872.71 709.65 872.71 492.38"/>
    <polygon class="cls-90" points="872.71 493.55 872.71 370.35 988.7 370.35 988.7 709.65 872.71 709.65 872.71 493.55"/>
    <polygon class="cls-129" points="872.71 494.73 872.71 370.35 988.7 370.35 988.7 709.65 872.71 709.65 872.71 494.73"/>
    <polygon class="cls-186" points="872.71 495.91 872.71 370.35 988.7 370.35 988.7 709.65 872.71 709.65 872.71 495.91"/>
    <polygon class="cls-167" points="872.71 497.09 872.71 370.35 988.7 370.35 988.7 709.65 872.71 709.65 872.71 497.09"/>
    <polygon class="cls-31" points="872.71 498.26 872.71 370.35 988.7 370.35 988.7 709.65 872.71 709.65 872.71 498.26"/>
    <polygon class="cls-79" points="872.71 499.44 872.71 370.35 988.7 370.35 988.7 709.65 872.71 709.65 872.71 499.44"/>
    <polygon class="cls-187" points="872.71 500.62 872.71 370.35 988.7 370.35 988.7 709.65 872.71 709.65 872.71 500.62"/>
    <polygon class="cls-103" points="872.71 501.8 872.71 370.35 988.7 370.35 988.7 709.65 872.71 709.65 872.71 501.8"/>
    <polygon class="cls-88" points="872.71 502.97 872.71 370.35 988.7 370.35 988.7 709.65 872.71 709.65 872.71 502.97"/>
    <polygon class="cls-143" points="872.71 504.15 872.71 370.35 988.7 370.35 988.7 709.65 872.71 709.65 872.71 504.15"/>
    <polygon class="cls-151" points="872.71 505.33 872.71 370.35 988.7 370.35 988.7 709.65 872.71 709.65 872.71 505.33"/>
    <polygon class="cls-73" points="872.71 506.51 872.71 370.35 988.7 370.35 988.7 709.65 872.71 709.65 872.71 506.51"/>
    <polygon class="cls-150" points="872.71 507.68 872.71 370.35 988.7 370.35 988.7 709.65 872.71 709.65 872.71 507.68"/>
    <polygon class="cls-142" points="872.71 508.86 872.71 370.35 988.7 370.35 988.7 709.65 872.71 709.65 872.71 508.86"/>
    <polygon class="cls-28" points="872.71 510.04 872.71 370.35 988.7 370.35 988.7 709.65 872.71 709.65 872.71 510.04"/>
    <polygon class="cls-86" points="872.71 511.22 872.71 370.35 988.7 370.35 988.7 709.65 872.71 709.65 872.71 511.22"/>
    <polygon class="cls-132" points="872.71 512.39 872.71 370.35 988.7 370.35 988.7 709.65 872.71 709.65 872.71 512.39"/>
    <polygon class="cls-102" points="872.71 513.57 872.71 370.35 988.7 370.35 988.7 709.65 872.71 709.65 872.71 513.57"/>
    <polygon class="cls-177" points="872.71 514.75 872.71 370.35 988.7 370.35 988.7 709.65 872.71 709.65 872.71 514.75"/>
    <polygon class="cls-56" points="872.71 515.93 872.71 370.35 988.7 370.35 988.7 709.65 872.71 709.65 872.71 515.93"/>
    <polygon class="cls-168" points="872.71 517.1 872.71 370.35 988.7 370.35 988.7 709.65 872.71 709.65 872.71 517.1"/>
    <polygon class="cls-21" points="872.71 518.28 872.71 370.35 988.7 370.35 988.7 709.65 872.71 709.65 872.71 518.28"/>
    <polygon class="cls-34" points="872.71 519.46 872.71 370.35 988.7 370.35 988.7 709.65 872.71 709.65 872.71 519.46"/>
    <polygon class="cls-163" points="872.71 520.64 872.71 370.35 988.7 370.35 988.7 709.65 872.71 709.65 872.71 520.64"/>
    <polygon class="cls-160" points="872.71 521.81 872.71 370.35 988.7 370.35 988.7 709.65 872.71 709.65 872.71 521.81"/>
    <polygon class="cls-67" points="872.71 522.99 872.71 370.35 988.7 370.35 988.7 709.65 872.71 709.65 872.71 522.99"/>
    <polygon class="cls-199" points="872.71 524.17 872.71 370.35 988.7 370.35 988.7 709.65 872.71 709.65 872.71 524.17"/>
    <polygon class="cls-117" points="872.71 525.35 872.71 370.35 988.7 370.35 988.7 709.65 872.71 709.65 872.71 525.35"/>
    <polygon class="cls-155" points="872.71 526.52 872.71 370.35 988.7 370.35 988.7 709.65 872.71 709.65 872.71 526.52"/>
    <polygon class="cls-55" points="872.71 527.7 872.71 370.35 988.7 370.35 988.7 709.65 872.71 709.65 872.71 527.7"/>
    <polygon class="cls-65" points="872.71 528.88 872.71 370.35 988.7 370.35 988.7 709.65 872.71 709.65 872.71 528.88"/>
    <polygon class="cls-36" points="872.71 530.06 872.71 370.35 988.7 370.35 988.7 709.65 872.71 709.65 872.71 530.06"/>
    <polygon class="cls-18" points="872.71 531.23 872.71 370.35 988.7 370.35 988.7 709.65 872.71 709.65 872.71 531.23"/>
    <polygon class="cls-59" points="872.71 532.41 872.71 370.35 988.7 370.35 988.7 709.65 872.71 709.65 872.71 532.41"/>
    <polygon class="cls-164" points="872.71 533.59 872.71 370.35 988.7 370.35 988.7 709.65 872.71 709.65 872.71 533.59"/>
    <polygon class="cls-77" points="872.71 534.77 872.71 370.35 988.7 370.35 988.7 709.65 872.71 709.65 872.71 534.77"/>
    <polygon class="cls-189" points="872.71 535.94 872.71 370.35 988.7 370.35 988.7 709.65 872.71 709.65 872.71 535.94"/>
    <polygon class="cls-89" points="872.71 537.12 872.71 370.35 988.7 370.35 988.7 709.65 872.71 709.65 872.71 537.12"/>
    <polygon class="cls-93" points="872.71 538.3 872.71 370.35 988.7 370.35 988.7 709.65 872.71 709.65 872.71 538.3"/>
    <polygon class="cls-37" points="872.71 539.48 872.71 370.39 872.71 370.35 988.7 370.35 988.7 709.65 872.71 709.65 872.71 539.48"/>
    <polygon class="cls-13" points="872.71 540.65 872.71 373.82 872.71 370.35 988.7 370.35 988.7 709.65 872.71 709.65 872.71 540.65"/>
    <polygon class="cls-68" points="872.71 541.83 872.71 377.24 872.71 370.35 988.7 370.35 988.7 709.65 872.71 709.65 872.71 541.83"/>
    <polygon class="cls-11" points="872.71 543.01 872.71 380.67 872.71 370.35 988.7 370.35 988.7 709.65 872.71 709.65 872.71 543.01"/>
    <polygon class="cls-27" points="872.71 544.19 872.71 384.1 872.71 370.35 988.7 370.35 988.7 709.65 872.71 709.65 872.71 544.19"/>
    <polygon class="cls-125" points="872.71 545.36 872.71 387.53 872.71 370.35 988.7 370.35 988.7 709.65 872.71 709.65 872.71 545.36"/>
    <path class="cls-111" d="m872.71,546.54v-174.52h-9.54c15.38-4.79,31.24-8.02,47.38-9.57v7.9h78.16v339.3h-115.99v-163.11Z"/>
    <path class="cls-128" d="m872.71,547.72v-172h-8.54c15.15-4.72,30.79-7.9,46.69-9.43v4.06h48.32v-3.57c8.12.95,16.26,2.33,24.38,4.17,4.06.92,8.12,1.96,12.18,3.11h-7.05v335.59h-115.99v-161.93Z"/>
    <path class="cls-23" d="m872.71,548.9v-169.47h-7.53c14.93-4.65,30.34-7.79,46.01-9.29s31.61-1.38,47.61.48c8,.93,16.02,2.3,24.03,4.11,4,.91,8.01,1.93,12,3.06h-6.13v331.87h-115.99v-160.76Z"/>
    <path class="cls-133" d="m872.71,550.07v-166.95h-6.52c14.71-4.58,29.88-7.67,45.32-9.15,30.88-2.97,62.81.48,94.18,11.23h-16.99v324.45h-115.99v-159.58Z"/>
    <path class="cls-98" d="m872.71,551.25v-164.42h-5.51c14.49-4.51,29.43-7.55,44.64-9.02,30.41-2.92,61.86.47,92.76,11.06h-15.89v320.78h-115.99v-158.4Z"/>
    <path class="cls-188" d="m872.71,552.43v-161.9h-4.51c14.26-4.44,28.98-7.44,43.95-8.88,29.94-2.88,60.91.47,91.34,10.89h-14.79v317.11h-115.99v-157.22Z"/>
    <path class="cls-197" d="m872.71,553.61v-159.37h-3.5c14.04-4.37,28.53-7.32,43.27-8.74,29.48-2.83,59.96.46,89.91,10.72h-13.68v313.44h-115.99v-156.05Z"/>
    <path class="cls-15" d="m872.71,554.78v-156.85h-2.49c13.82-4.3,28.08-7.21,42.58-8.6,29.01-2.79,59.01.45,88.49,10.55h-12.58v309.77h-115.99v-154.87Z"/>
    <path class="cls-61" d="m872.71,555.96v-154.32h-1.48c13.6-4.24,27.62-7.09,41.89-8.46,28.54-2.74,58.06.44,87.06,10.38h-11.48v306.09h-115.99v-153.69Z"/>
    <path class="cls-84" d="m872.71,557.14v-151.8h-.48c13.37-4.17,27.17-6.97,41.21-8.32,28.07-2.7,57.11.44,85.64,10.21h-10.38v302.42h-115.99v-152.51Z"/>
    <path class="cls-194" d="m872.71,558.32v-145.95h-9.25c3.23-1.19,6.5-2.3,9.78-3.32,13.15-4.1,26.72-6.86,40.52-8.19,27.61-2.65,56.16.43,84.21,10.04h-9.27v298.75h-115.99v-151.34Z"/>
    <path class="cls-159" d="m872.71,559.49v-143.48h-8.08c3.18-1.17,6.39-2.26,9.62-3.27,12.93-4.03,26.27-6.74,39.84-8.05,27.14-2.61,55.21.42,82.79,9.87h-8.17v295.08h-115.99v-150.16Z"/>
    <path class="cls-95" d="m872.71,560.67v-137.33h-16.19c6.13-2.61,12.38-4.91,18.74-6.89,12.71-3.96,25.82-6.63,39.15-7.91,26.67-2.56,54.26.42,81.36,9.7h-7.07v291.41h-115.99v-148.98Z"/>
    <path class="cls-75" d="m872.71,561.85v-134.93h-14.86c6.02-2.57,12.17-4.83,18.41-6.77,12.48-3.89,25.36-6.51,38.47-7.77,26.21-2.52,53.31.41,79.94,9.53h-5.97v287.74h-115.99v-147.8Z"/>
    <path class="cls-87" d="m872.71,563.03v-132.52h-13.52c5.92-2.52,11.95-4.74,18.08-6.65,12.26-3.82,24.91-6.39,37.78-7.63,25.74-2.47,52.36.4,78.52,9.36h-4.86v284.07h-115.99v-146.63Z"/>
    <path class="cls-123" d="m872.71,564.2v-130.12h-12.18c5.81-2.48,11.73-4.66,17.75-6.53,12.04-3.75,24.46-6.28,37.1-7.49,25.27-2.43,51.41.39,77.09,9.19h-3.76v280.4h-115.99v-145.45Z"/>
    <path class="cls-198" d="m872.71,565.38v-127.71h-10.85c5.7-2.43,11.52-4.57,17.43-6.41,11.82-3.68,24.01-6.16,36.41-7.35,24.81-2.38,50.46.39,75.67,9.02h-2.66v276.73h-115.99v-144.27Z"/>
    <path class="cls-145" d="m872.71,566.56v-125.31h-9.51c5.59-2.38,11.3-4.48,17.1-6.29,11.6-3.61,23.56-6.05,35.73-7.22,24.34-2.34,49.51.38,74.24,8.85h-1.56v273.06h-115.99v-143.09Z"/>
    <path class="cls-49" d="m872.71,567.74v-122.9h-8.18c5.49-2.34,11.08-4.4,16.77-6.17,11.37-3.54,23.1-5.93,35.04-7.08,23.87-2.29,48.56.37,72.82,8.68h-.45v269.38h-115.99v-141.92Z"/>
    <path class="cls-183" d="m872.71,568.91v-120.5h-6.84c5.38-2.29,10.87-4.31,16.44-6.05,11.15-3.47,22.65-5.81,34.35-6.94,23.4-2.25,47.61.36,71.39,8.51,5.95,2.04,11.72,4.37,17.33,6.98h-16.68v258.73h-115.99v-140.74Z"/>
    <path class="cls-134" d="m872.71,570.09v-118.1h-5.51c5.27-2.25,10.65-4.23,16.11-5.93,10.93-3.4,22.2-5.7,33.67-6.8,22.94-2.2,46.66.36,69.97,8.34,5.83,2,11.49,4.28,16.98,6.84h-15.23v255.2h-115.99v-139.56Z"/>
    <path class="cls-105" d="m872.71,571.27v-115.69h-4.17c5.17-2.2,10.43-4.14,15.79-5.81,10.71-3.33,21.75-5.58,32.98-6.66,22.47-2.16,45.71.35,68.54,8.17,5.71,1.96,11.26,4.2,16.64,6.71h-13.78v251.67h-115.99v-138.38Z"/>
    <path class="cls-16" d="m872.71,572.45v-113.29h-2.84c5.06-2.16,10.22-4.05,15.46-5.69,10.48-3.27,21.3-5.47,32.3-6.52,22-2.12,44.76.34,67.12,8,5.59,1.92,11.02,4.11,16.29,6.57h-12.34v248.13h-115.99v-137.21Z"/>
    <path class="cls-127" d="m872.71,573.62v-103.81h-16.04c37.89-20.81,83.2-26.18,126.98-11.19,5.47,1.87,10.79,4.02,15.94,6.43h-10.89v244.6h-115.99v-136.03Z"/>
    <path class="cls-192" d="m872.71,574.8v-101.56h-14.39c37.06-20.36,81.4-25.62,124.22-10.95,5.35,1.83,10.56,3.94,15.6,6.29h-9.44v241.07h-115.99v-134.85Z"/>
    <path class="cls-71" d="m872.71,575.98v-99.31h-12.74c36.24-19.91,79.6-25.05,121.47-10.7,5.23,1.79,10.32,3.85,15.25,6.15h-7.99v237.54h-115.99v-133.67Z"/>
    <path class="cls-26" d="m872.71,577.16v-97.06h-11.09c35.42-19.46,77.79-24.48,118.72-10.46,5.12,1.75,10.09,3.76,14.91,6.01h-6.54v234.01h-115.99v-132.5Z"/>
    <path class="cls-26" d="m872.71,578.33v-94.81h-9.44c34.6-19.01,75.99-23.91,115.96-10.22,5,1.71,9.85,3.67,14.56,5.87h-5.09v230.48h-115.99v-131.32Z"/>
    <path class="cls-200" d="m872.71,579.54v-92.5h-7.74c33.76-18.54,74.13-23.33,113.13-9.97,9.75,3.34,18.95,7.66,27.54,12.82h-16.94v219.76h-115.99v-130.11Z"/>
    <path class="cls-50" d="m872.71,580.75v-90.18h-6.04c32.91-18.08,72.28-22.75,110.31-9.72,9.51,3.26,18.48,7.47,26.85,12.5h-15.12v216.31h-115.99v-128.9Z"/>
    <path class="cls-112" d="m872.71,581.96v-87.87h-4.35c32.07-17.62,70.43-22.16,107.48-9.47,9.26,3.17,18,7.27,26.17,12.18h-13.3v212.86h-115.99v-127.69Z"/>
    <path class="cls-24" d="m872.71,583.17v-85.56h-2.65c31.22-17.15,68.57-21.58,104.65-9.22,9.02,3.09,17.53,7.08,25.48,11.86h-11.48v209.4h-115.99v-126.48Z"/>
    <path class="cls-118" d="m872.71,584.38v-83.25h-.96c30.38-16.69,66.72-21,101.82-8.97,8.78,3.01,17.06,6.89,24.79,11.53h-9.66v205.95h-115.99v-125.27Z"/>
    <path class="cls-182" d="m872.71,585.59v-74.29h-10.05c3.5-2.4,7.1-4.61,10.79-6.64,29.54-16.22,64.87-20.41,98.99-8.72,8.53,2.92,16.58,6.7,24.1,11.21h-7.84v202.5h-115.99v-124.06Z"/>
    <path class="cls-46" d="m872.71,586.8v-72.17h-8.05c3.4-2.33,6.9-4.48,10.48-6.45,28.69-15.76,63.01-19.83,96.16-8.47,8.29,2.84,16.11,6.51,23.41,10.89h-6.02v199.05h-115.99v-122.85Z"/>
    <path class="cls-80" d="m872.71,588.01v-62.77h-15.63c6.18-5.19,12.8-9.72,19.76-13.54,27.85-15.3,61.16-19.25,93.34-8.22,8.04,2.76,15.64,6.32,22.72,10.57h-4.2v195.6h-115.99v-121.64Z"/>
    <path class="cls-122" d="m872.71,589.22v-60.86h-13.33c5.99-5.03,12.41-9.43,19.16-13.13,27-14.83,59.31-18.66,90.51-7.98,7.8,2.67,15.16,6.13,22.03,10.25h-2.37v192.15h-115.99v-120.43Z"/>
    <path class="cls-7" d="m872.71,590.43v-58.96h-11.04c5.8-4.87,12.02-9.13,18.56-12.72,26.16-14.37,57.45-18.08,87.68-7.73,7.56,2.59,14.69,5.93,21.35,9.93h-.55v188.7h-115.99v-119.22Z"/>
    <path class="cls-120" d="m872.71,591.64v-57.06h-8.74c5.61-4.71,11.63-8.84,17.96-12.31,25.32-13.91,55.6-17.5,84.85-7.48,14.63,5.01,27.61,12.95,38.56,23.02h-16.64v171.84h-115.99v-118.01Z"/>
    <path class="cls-14" d="m872.71,592.85v-55.16h-6.45c5.43-4.56,11.25-8.54,17.36-11.9,24.47-13.44,53.75-16.91,82.02-7.23,14.14,4.84,26.69,12.52,37.28,22.25h-14.22v168.84h-115.99v-116.8Z"/>
    <path class="cls-83" d="m872.71,594.06v-53.26h-4.15c5.24-4.4,10.86-8.25,16.77-11.49,23.63-12.98,51.89-16.33,79.19-6.98,13.65,4.68,25.77,12.09,35.99,21.48h-11.8v165.84h-115.99v-115.59Z"/>
    <path class="cls-92" d="m872.71,595.27v-37.07h-15.84c8.48-10.53,18.76-19.11,30.15-25.37,22.79-12.52,50.04-15.75,76.37-6.73,13.16,4.51,24.85,11.65,34.7,20.71h-9.38v162.83h-105.07v11.45c-5.8-3.48-11.18-7.53-16.11-12.06h5.19v-113.77Z"/>
    <path class="cls-156" d="m872.71,596.48v-35.7h-13.03c8.17-10.14,18.06-18.4,29.03-24.43,21.94-12.05,48.19-15.16,73.54-6.48,12.68,4.34,23.93,11.22,33.42,19.95h-6.96v159.01h3.76c-4.87,4.09-10.08,7.66-15.57,10.67v-9.85h-73.54v16.33c-12.68-4.34-23.93-11.22-33.42-19.95h2.77v-109.56Z"/>
    <path class="cls-58" d="m872.71,597.69v-34.32h-10.22c7.85-9.75,17.37-17.69,27.92-23.49,21.1-11.59,46.33-14.58,70.71-6.23,12.19,4.18,23.01,10.79,32.13,19.18h-4.55v139.67h14.41c-7.85,9.75-17.37,17.69-27.92,23.49v-6.33h-70.71v12.56c-12.19-4.18-23.01-10.79-32.13-19.18h.35v-105.34Z"/>
    <path class="cls-108" d="m872.71,598.9v-32.95h-7.41c7.54-9.36,16.67-16.99,26.8-22.55,20.25-11.13,44.48-14,67.88-5.98,11.7,4.01,22.09,10.36,30.85,18.41h-2.13v134.08h11.6c-7.54,9.36-16.67,16.99-26.8,22.55v-2.81h-67.88v8.79c-11.7-4.01-22.09-10.36-30.85-18.41-4.38-4.03-8.36-8.48-11.89-13.28h9.82v-87.85Z"/>
    <path class="cls-9" d="m872.71,600.11v-31.58h-4.59c7.23-8.97,15.98-16.28,25.68-21.61,19.41-10.66,42.63-13.42,65.05-5.73,11.21,3.84,21.17,9.93,29.56,17.65,4.2,3.86,8.01,8.13,11.39,12.72h-11.1v115.77h8.79c-7.23,8.97-15.98,16.28-25.68,21.61-19.41,10.66-42.63,13.42-65.05,5.73-22.43-7.68-39.81-24.35-49.79-45.08h15.75v-69.48Z"/>
    <path class="cls-53" d="m872.71,601.32v-30.2h-1.78c6.91-8.58,15.28-15.57,24.57-20.67,18.57-10.2,40.77-12.83,62.22-5.48,21.45,7.35,38.08,23.29,47.63,43.12h-16.64v96.67h5.97c-6.91,8.58-15.28,15.57-24.57,20.67-18.57,10.2-40.77,12.83-62.22,5.48-21.45-7.35-38.08-23.29-47.63-43.12h12.45v-66.46Z"/>
    <path class="cls-179" d="m858.65,602.53c13.13-43.74,56.98-67.82,97.93-53.79,20.48,7.01,36.35,22.23,45.46,41.16h-13.35v92.27h3.16c-6.6,8.19-14.59,14.86-23.45,19.73-17.72,9.73-38.92,12.25-59.4,5.23-20.48-7.01-36.35-22.23-45.46-41.16h9.15v-63.44h-14.05Z"/>
    <path class="cls-51" d="m862.18,603.74c12.51-41.66,54.27-64.59,93.27-51.23,19.5,6.68,34.62,21.17,43.3,39.2h-10.05v60.42h14.72c-12.51,41.66-54.27,64.59-93.27,51.23-19.5-6.68-34.62-21.17-43.3-39.2h5.86v-60.42h-10.52Z"/>
    <path class="cls-104" d="m865.71,604.95c11.88-39.57,51.55-61.36,88.6-48.67,18.53,6.35,32.89,20.11,41.13,37.24h-6.75v57.4h11.19c-11.88,39.57-51.55,61.36-88.6,48.67-18.53-6.35-32.89-20.11-41.13-37.24h2.56v-57.4h-6.99Z"/>
    <path class="cls-35" d="m869.25,606.16c11.26-37.49,48.84-58.13,83.94-46.11,17.55,6.01,31.16,19.05,38.97,35.28h-3.45v54.38h7.65c-11.26,37.49-48.84,58.13-83.94,46.11-35.1-12.03-54.43-52.17-43.17-89.66Z"/>
    <ellipse class="cls-17" cx="932.8" cy="627.93" rx="63.04" ry="67.33"/>
    <ellipse class="cls-154" cx="932.8" cy="627.93" rx="59.33" ry="63.37"/>
    <ellipse class="cls-147" cx="932.8" cy="627.93" rx="55.62" ry="59.41"/>
    <ellipse class="cls-166" cx="932.8" cy="627.93" rx="51.91" ry="55.45"/>
    <ellipse class="cls-170" cx="932.8" cy="627.93" rx="48.2" ry="51.49"/>
    <ellipse class="cls-60" cx="932.8" cy="627.93" rx="44.5" ry="47.53"/>
    <ellipse class="cls-136" cx="932.8" cy="627.93" rx="40.79" ry="43.57"/>
    <ellipse class="cls-205" cx="932.8" cy="627.93" rx="37.08" ry="39.61"/>
    <ellipse class="cls-191" cx="932.8" cy="627.93" rx="33.37" ry="35.64"/>
    <ellipse class="cls-10" cx="932.8" cy="627.93" rx="29.66" ry="31.68"/>
    <ellipse class="cls-72" cx="932.8" cy="627.93" rx="25.96" ry="27.72"/>
    <ellipse class="cls-52" cx="932.8" cy="627.93" rx="22.25" ry="23.76"/>
    <ellipse class="cls-138" cx="932.8" cy="627.93" rx="18.54" ry="19.8"/>
    <ellipse class="cls-121" cx="932.8" cy="627.93" rx="14.83" ry="15.84"/>
    <ellipse class="cls-38" cx="932.8" cy="627.93" rx="11.12" ry="11.88"/>
    <ellipse class="cls-44" cx="932.8" cy="627.93" rx="7.42" ry="7.92"/>
    <ellipse class="cls-196" cx="932.8" cy="627.93" rx="3.71" ry="3.96"/>
  </g>
</svg>